<?xml version="1.0" encoding="UTF-8" standalone="no"?>
<!-- Created with Inkscape (http://www.inkscape.org/) -->

<svg
   xmlns:dc="http://purl.org/dc/elements/1.1/"
   xmlns:cc="http://creativecommons.org/ns#"
   xmlns:rdf="http://www.w3.org/1999/02/22-rdf-syntax-ns#"
   xmlns:svg="http://www.w3.org/2000/svg"
   xmlns="http://www.w3.org/2000/svg"
   xmlns:xlink="http://www.w3.org/1999/xlink"
   xmlns:sodipodi="http://sodipodi.sourceforge.net/DTD/sodipodi-0.dtd"
   xmlns:inkscape="http://www.inkscape.org/namespaces/inkscape"
   width="208.3159mm"
   height="187.44792mm"
   viewBox="0 0 208.3159 187.44792"
   version="1.1"
   id="svg8"
   inkscape:version="0.92.3 (2405546, 2018-03-11)"
   sodipodi:docname="Deepsea fish b_w.svg.2020_05_17_10_58_57.0.svg">
  <title
     id="title23">Deepsea fish</title>
  <defs
     id="defs2">
    <linearGradient
       inkscape:collect="always"
       id="linearGradient1010">
      <stop
         style="stop-color:#aaeeff;stop-opacity:1;"
         offset="0"
         id="stop1006" />
      <stop
         style="stop-color:#aaeeff;stop-opacity:0;"
         offset="1"
         id="stop1008" />
    </linearGradient>
    <linearGradient
       inkscape:collect="always"
       id="linearGradient985">
      <stop
         style="stop-color:#ffff00;stop-opacity:1;"
         offset="0"
         id="stop981" />
      <stop
         style="stop-color:#ffff00;stop-opacity:0;"
         offset="1"
         id="stop983" />
    </linearGradient>
    <radialGradient
       inkscape:collect="always"
       xlink:href="#linearGradient985"
       id="radialGradient987"
       cx="145.22536"
       cy="31.788483"
       fx="145.22536"
       fy="31.788483"
       r="11.392083"
       gradientTransform="matrix(1,0,0,0.67636379,0,10.287904)"
       gradientUnits="userSpaceOnUse" />
    <radialGradient
       inkscape:collect="always"
       xlink:href="#linearGradient1010"
       id="radialGradient1012"
       cx="104.98206"
       cy="93.62955"
       fx="104.98206"
       fy="93.62955"
       r="101.58773"
       gradientTransform="matrix(1,0,0,0.90787501,0,8.6256213)"
       gradientUnits="userSpaceOnUse" />
  </defs>
  <sodipodi:namedview
     id="base"
     pagecolor="#ffffff"
     bordercolor="#666666"
     borderopacity="1.0"
     inkscape:pageopacity="0.0"
     inkscape:pageshadow="2"
     inkscape:zoom="0.70710678"
     inkscape:cx="501.32554"
     inkscape:cy="402.00758"
     inkscape:document-units="mm"
     inkscape:current-layer="layer2"
     showgrid="false"
     fit-margin-top="0"
     fit-margin-left="0"
     fit-margin-right="0"
     fit-margin-bottom="0"
     inkscape:window-width="1280"
     inkscape:window-height="969"
     inkscape:window-x="0"
     inkscape:window-y="27"
     inkscape:window-maximized="1" />
  <metadata
     id="metadata5">
    <rdf:RDF>
      <cc:Work
         rdf:about="">
        <dc:format>image/svg+xml</dc:format>
        <dc:type
           rdf:resource="http://purl.org/dc/dcmitype/StillImage" />
        <dc:title>Deepsea fish</dc:title>
        <dc:date>2020</dc:date>
        <dc:creator>
          <cc:Agent>
            <dc:title>Doodleguy</dc:title>
          </cc:Agent>
        </dc:creator>
        <dc:rights>
          <cc:Agent>
            <dc:title>Public domain</dc:title>
          </cc:Agent>
        </dc:rights>
        <cc:license
           rdf:resource="http://creativecommons.org/publicdomain/zero/1.0/" />
      </cc:Work>
      <cc:License
         rdf:about="http://creativecommons.org/publicdomain/zero/1.0/">
        <cc:permits
           rdf:resource="http://creativecommons.org/ns#Reproduction" />
        <cc:permits
           rdf:resource="http://creativecommons.org/ns#Distribution" />
        <cc:permits
           rdf:resource="http://creativecommons.org/ns#DerivativeWorks" />
      </cc:License>
    </rdf:RDF>
  </metadata>
  <g
     inkscape:groupmode="layer"
     id="layer2"
     inkscape:label="bund">
    <path
       style="opacity:1;vector-effect:none;fill:#00ffff;fill-opacity:1;stroke:none;stroke-width:0.44881889;stroke-linecap:square;stroke-linejoin:miter;stroke-miterlimit:4;stroke-dasharray:none;stroke-dashoffset:0;stroke-opacity:1"
       d="m 471.09333,247.87537 c -4.27583,0.18389 -8.79716,0.66674 -12.50523,2.97747 -3.03204,2.56303 -5.30842,5.89092 -7.65512,9.06222 -1.57339,2.41785 -3.48761,4.76667 -4.24395,7.5962 -0.20038,2.18641 1.31151,4.05914 2.32701,5.86042 2.51762,3.73997 5.42397,7.75048 9.84305,9.32024 3.95669,1.13567 8.12345,0.16508 12.07519,-0.50589 4.10045,-0.8896 8.29521,-1.69403 12.12403,-3.46384 3.04864,-2.10112 4.74474,-5.72995 5.414,-9.28606 0.33315,-2.7197 0.5242,-5.63606 -0.74114,-8.16302 -2.16424,-4.72679 -5.52541,-8.99921 -9.83259,-11.94545 -1.97867,-1.39139 -4.47553,-1.49691 -6.80525,-1.45229 z"
       id="path127"
       inkscape:connector-curvature="0"
       transform="scale(0.26458333)" />
    <path
       style="opacity:1;vector-effect:none;fill:#ffcc00;fill-opacity:1;stroke:none;stroke-width:0.31736287;stroke-linecap:square;stroke-linejoin:miter;stroke-miterlimit:4;stroke-dasharray:none;stroke-dashoffset:0;stroke-opacity:1"
       d="m 550.05899,91.024193 c -5.79467,0.02022 -11.70082,0.234799 -17.24072,2.107339 -4.86391,1.551224 -9.81486,2.847947 -14.60917,4.607117 -2.68082,1.010633 -4.78086,3.080671 -6.36573,5.414351 -3.28129,4.57284 -6.13418,9.89777 -6.01308,15.68146 0.0763,5.33027 3.00376,10.14471 6.61544,13.87662 4.25488,4.48819 9.49789,8.0262 15.28822,10.21144 6.14485,2.33855 12.54623,3.92772 18.94635,5.39187 3.36853,0.74841 6.93489,1.47538 10.32881,0.43537 4.03358,-1.20528 7.92779,-2.832 11.90437,-4.20909 5.02878,-1.79317 10.2812,-3.65364 14.17508,-7.47006 4.03412,-3.92934 6.20733,-9.31105 7.81121,-14.6058 0.85886,-2.87189 1.27164,-5.89176 0.90767,-8.88235 -0.25426,-3.55906 -2.80343,-6.34809 -5.24559,-8.70467 -4.62653,-4.38101 -9.88923,-8.141313 -15.65046,-10.881589 -4.60859,-2.172322 -9.7915,-2.501633 -14.79578,-2.872942 -2.01728,-0.09185 -4.03758,-0.103309 -6.05662,-0.09907 z"
       id="path129"
       inkscape:connector-curvature="0"
       transform="scale(0.26458333)" />
    <path
       style="opacity:1;vector-effect:none;fill:url(#radialGradient987);fill-opacity:1;stroke:none;stroke-width:0.08396893;stroke-linecap:square;stroke-linejoin:miter;stroke-miterlimit:4;stroke-dasharray:none;stroke-dashoffset:0;stroke-opacity:1"
       d="m 145.53644,24.083484 c -1.53317,0.0053 -3.09584,0.06212 -4.56161,0.557567 -1.28691,0.410428 -2.59685,0.753519 -3.86534,1.218967 -0.7093,0.267396 -1.26494,0.815094 -1.68427,1.432547 -0.86817,1.209897 -1.623,2.618785 -1.59096,4.149053 0.0202,1.4103 0.79475,2.684121 1.75034,3.671522 1.12577,1.1875 2.51298,2.123599 4.045,2.701777 1.62583,0.618741 3.31953,1.039209 5.01289,1.426599 0.89126,0.198017 1.83486,0.390361 2.73283,0.115192 1.06722,-0.318897 2.09757,-0.7493 3.1497,-1.113655 1.33053,-0.474443 2.72024,-0.966693 3.75049,-1.976454 1.06736,-1.039638 1.64236,-2.463549 2.06672,-3.864451 0.22724,-0.759855 0.33645,-1.558862 0.24015,-2.350122 -0.0673,-0.941668 -0.74174,-1.679599 -1.38789,-2.303111 -1.22411,-1.159142 -2.61653,-2.154055 -4.14085,-2.879087 -1.21936,-0.57476 -2.59067,-0.66189 -3.91472,-0.760132 -0.53374,-0.0243 -1.06828,-0.02733 -1.60248,-0.02621 z"
       id="path129-6"
       inkscape:connector-curvature="0" />
    <path
       style="opacity:1;vector-effect:none;fill:#0088aa;fill-opacity:1;stroke:none;stroke-width:2.538903;stroke-linecap:square;stroke-linejoin:miter;stroke-miterlimit:4;stroke-dasharray:none;stroke-dashoffset:0;stroke-opacity:1"
       d="m 493.06691,8.5418349 c -13.75519,3.0224091 -27.98538,8.7776711 -35.74204,21.2664731 -10.36325,15.784686 -16.72831,34.235599 -19.4669,52.859447 -1.04743,16.480877 -0.82634,33.224805 4.06208,49.140305 2.27223,11.39735 2.69738,23.38387 0.99634,34.8483 -3.32398,7.85378 -7.81693,18.48267 -18.00348,18.27464 -19.01802,2.83869 -35.76958,13.54885 -51.28273,24.29776 -11.46141,7.735 -24.39825,13.33847 -34.57602,22.96913 -19.97007,18.35833 -41.25163,35.27912 -60.12175,54.8489 -26.80556,25.96253 -51.54636,53.97424 -77.96531,80.28465 -7.09628,6.29719 -16.14688,14.68747 -26.42576,10.88677 -10.35867,-1.75917 -14.53254,-12.84723 -20.70022,-19.94657 -10.6598,-16.02126 -20.60024,-32.6625 -34.17019,-46.49532 -17.55133,-18.63938 -36.726768,-36.15269 -58.37319,-49.9218 -15.170414,-7.68795 -30.124305,-16.26436 -46.145444,-22.00354 -3.358893,-0.75702 -2.698317,3.87218 -0.406429,4.78048 15.128575,10.23804 31.681988,18.43788 45.905991,30.06967 23.688331,19.34347 48.593322,38.63181 64.146212,65.56928 14.94796,24.38631 23.4579,51.98319 35.42357,77.83896 1.92063,2.40267 0.2815,7.04501 -2.95153,4.61079 -8.98169,-8.95569 -13.77595,-21.28826 -21.47304,-31.32238 -15.83367,-25.20877 -37.590143,-46.07155 -61.63702,-63.3791 -7.018775,-6.54363 -15.256506,-11.73876 -24.805425,-13.56754 -5.98166,-1.12163 -12.474493,-4.79877 -18.509452,-3.28772 3.442224,4.63169 10.31173,6.21504 14.893832,9.78782 20.589504,12.96803 36.612628,31.65331 55.500815,46.77437 14.25558,13.81466 29.05882,28.07193 38.25594,45.87359 0.55727,3.81739 -4.30331,0.73103 -4.93436,-0.95689 -10.08326,-12.73966 -19.95223,-26.09732 -33.88176,-34.98967 -12.366505,-8.09003 -25.430604,-15.26594 -38.687438,-21.73474 -6.786154,-0.97784 -14.318173,-1.57655 -20.891613,0.36303 3.210021,3.91235 9.735037,4.98607 14.213332,7.44308 20.660976,7.73441 38.144558,21.62131 53.234119,37.42996 6.54366,7.10078 14.59573,13.11805 20.67652,20.44753 -3.72898,3.75816 -9.95793,-0.59093 -14.14214,-1.87825 -8.44252,-4.24357 -17.654716,-7.93407 -27.278059,-5.89322 -17.058721,1.53548 -34.397437,5.82865 -48.885859,15.18977 -1.148407,2.41881 4.963647,1.10567 5.972132,1.91575 17.778931,1.18262 35.760419,1.646 52.877891,7.18357 16.124145,4.49757 31.884115,10.23807 48.342915,13.5046 1.2678,0.29529 7.66631,1.82446 4.69132,3.77054 -10.95296,2.47506 -22.82726,0.7056 -33.17128,5.93662 -15.85544,4.2941 -33.130387,0.87274 -48.67475,6.45748 -2.434426,2.26011 2.717484,3.93598 4.407579,4.36417 15.508228,2.00913 31.636151,1.24144 46.835961,-2.46028 9.2462,-2.63349 19.10085,-3.07874 28.27835,-5.70775 3.14419,0.95644 -0.36459,5.22268 -2.41095,5.34868 -19.31957,9.68988 -40.11663,16.27557 -59.827862,24.97365 2.221723,3.79894 8.382982,3.75022 12.376342,3.95183 16.91469,-2.25711 32.36454,-10.55836 48.84443,-14.24868 2.62843,1.39973 -1.9077,4.23965 -3.03441,5.22241 -9.65117,7.66051 -21.78906,12.52786 -29.9159,21.91952 1.9128,3.46633 7.72634,2.55865 11.18862,3.24749 13.56886,1.68503 24.75447,-7.84219 34.43397,-15.9691 9.50188,-8.12374 12.04393,-20.72452 15.5094,-32.06839 0.49164,-2.43578 3.35513,-5.77909 5.47297,-2.69703 7.84854,4.0691 17.5851,3.43934 25.18673,8.41268 17.0529,11.08327 29.84297,27.40395 44.41703,41.38683 23.65068,22.91771 43.53276,51.52266 74.24038,65.69328 18.66179,8.95545 36.678,19.88981 56.66523,25.65827 3.65921,0.17668 9.4636,1.31591 11.86534,-2.10514 -6.2348,-16.90402 -16.17596,-32.30311 -25.04728,-47.94652 -3.34697,-7.0468 -9.6594,-12.53864 -12.34021,-19.81657 1.99095,-1.22056 4.5649,3.0835 6.14576,4.22213 15.36491,19.66616 25.9977,42.47945 37.60648,64.44458 0.17103,13.85816 1.03112,30.38046 -10.59872,40.33507 -8.13762,7.51712 -17.93919,13.47882 -29.03004,15.08718 -13.56422,4.75693 -27.5223,9.69441 -39.42949,17.84734 -0.32435,2.6415 4.9597,1.25796 6.5364,1.36726 23.37014,-3.80221 46.23372,-11.07252 67.90908,-20.50294 8.2306,-5.04568 12.59561,-14.1314 18.72728,-21.06129 1.17783,5.97805 -3.27861,12.23679 -6.66267,17.06803 -8.51958,8.58499 -20.15751,13.62194 -31.34826,17.8434 -12.5558,3.73656 -24.5248,9.37588 -37.50784,11.5398 -2.60256,0.0535 -5.49182,2.94939 -2.01043,4.44508 11.27216,7.79262 25.42015,3.77725 37.7209,1.32779 13.04698,-4.14349 23.5484,-13.76411 34.23274,-21.96885 7.88616,-6.31124 14.8689,-13.70714 20.97644,-21.65908 2.83048,-0.53587 1.02728,4.81975 0.93518,6.27005 -3.96023,17.43788 -13.65253,32.84856 -19.83213,49.41855 1.96569,3.39899 7.3359,-10e-4 10.08179,-0.70632 10.61525,-3.99828 18.44331,-12.91026 22.33932,-23.42804 4.71893,-8.56558 1.94132,-19.10584 5.71215,-27.77012 3.1831,0.83099 1.68597,6.16818 2.72267,8.59025 3.31048,11.78872 7.6745,23.78745 15.21937,33.5481 1.52821,2.56735 5.1492,2.01188 4.55358,-1.31595 0.3382,-21.57239 -12.53554,-40.04175 -20.32735,-59.20639 0.23092,-2.33213 3.51844,1.35091 4.43342,1.69579 16.07967,11.16743 26.46212,28.12973 36.07528,44.7732 2.15244,5.75688 10.4591,9.80661 15.01812,4.41548 0.25789,-8.00031 -4.24667,-15.6823 -6.96953,-23.09068 -8.81933,-21.31484 -26.69394,-37.22192 -44.72778,-50.79843 -9.69631,-7.25689 -22.40782,-9.04745 -32.78655,-14.41441 -1.3365,-12.5067 1.08426,-25.98989 -5.84784,-37.31645 -6.81878,-14.04756 -17.99627,-25.84103 -31.77049,-33.15747 -3.21741,-1.29291 -1.31472,-5.40601 1.77961,-3.77229 11.98814,5.60693 21.48049,15.7493 29.67126,25.93646 8.25645,12.12871 12.01482,26.7673 11.08011,41.37679 -0.70068,6.53225 8.01298,5.61507 11.91073,8.00033 20.80176,6.84042 35.99162,23.54611 51.31259,38.3128 26.45824,5.07918 53.519,2.05824 80.133,0.0974 4.84495,0.53387 11.35895,-4.69801 14.60431,1.07452 0.93335,3.55315 -5.2006,3.15653 -7.3828,3.77624 -9.92858,1.82669 -20.66836,-0.75691 -30.20789,2.69111 -0.20389,3.48624 4.25764,6.35803 5.82708,9.38865 5.72983,7.9187 12.67859,15.13523 22.05041,18.59697 7.80015,4.5999 17.39097,1.225 25.99793,2.22784 16.12499,-0.38245 32.43393,0.65107 48.44665,-0.59801 29.8873,-7.60984 60.57191,-15.95307 86.26128,-33.50807 19.0897,-23.20549 33.70916,-49.89935 44.90196,-77.69298 0.91899,-9.27215 -2.40845,-19.41187 -8.82107,-26.17519 -4.26188,-2.67994 -5.20739,4.83094 -6.48116,7.2802 -4.7764,7.22627 -13.69262,10.95537 -21.7972,13.08661 -13.7458,1.77342 -27.23077,-3.72403 -40.73656,-5.572 -27.32908,-4.89893 -53.94028,-12.92289 -79.69761,-23.24927 -17.60769,-7.65176 -35.62304,-14.58077 -52.1549,-24.47832 -24.68232,-14.3351 -50.05741,-28.24835 -70.67618,-48.30557 -5.73557,-5.60007 -13.84316,-8.34014 -19.57565,-13.60945 7.99679,-13.51816 19.53888,-24.75104 30.36064,-36.05688 8.85151,-8.2967 18.15582,-18.12362 31.13636,-18.70706 14.90309,-2.44978 30.34126,-0.40306 45.08396,-3.67299 13.02777,-4.02341 17.50056,-18.24211 25.62389,-27.74621 3.86245,-5.84207 9.5321,-10.1786 16.27376,-12.03446 2.22447,-1.9183 -2.45725,-4.85548 -3.05019,-6.82445 -14.4656,-19.19682 -29.8671,-37.6405 -46.81228,-54.712 -17.63219,-19.58778 -35.04546,-39.42417 -51.4724,-60.04291 -15.63148,-21.60091 -34.07994,-41.0233 -49.16404,-63.00431 -16.65726,-26.65141 -28.02571,-58.559704 -24.23183,-90.276471 4.51621,-12.471137 14.85079,-22.579629 26.33697,-28.79132 9.04102,-0.848293 19.11746,-1.596558 27.54046,2.523408 9.03208,6.155162 17.2285,15.785869 16.29463,27.414199 0.66425,6.458487 -1.02288,14.644369 3.48424,19.964323 6.23187,0.646356 12.70531,-1.167748 18.78449,-1.998603 C 539.64708,64.737741 545.36022,42.267284 534.31152,24.536574 528.14274,14.986059 518.7657,7.6200071 507.47795,5.293573 c -4.63489,0.018456 -9.7364,2.4054899 -14.41104,3.2482619 z M 467.39088,211.65155 c 17.40997,-0.0543 35.7855,6.15216 47.0885,19.82425 5.2599,10.40232 14.46909,19.67333 14.36508,32.12758 0.61123,12.17602 1.34247,25.3698 -6.11616,35.83871 -9.5425,14.51557 -22.80688,27.85521 -40.32324,31.74286 -12.45458,3.2958 -25.54546,-0.7873 -37.47429,-4.44309 -20.08721,-7.24323 -30.85851,-27.78671 -37.48583,-46.76313 -3.46143,-9.6142 -0.78964,-19.97069 4.69336,-28.22886 3.02594,-7.12426 3.47507,-15.43852 9.4031,-21.13428 8.92,-10.99163 22.1646,-18.32212 36.46019,-18.53986 3.12366,-0.24308 6.25454,-0.44633 9.38929,-0.42418 z"
       id="path989"
       inkscape:connector-curvature="0"
       transform="scale(0.26458333)" />
    <path
       style="opacity:0.61;vector-effect:none;fill:url(#radialGradient1012);fill-opacity:1;stroke:none;stroke-width:0.67175144;stroke-linecap:square;stroke-linejoin:miter;stroke-miterlimit:4;stroke-dasharray:none;stroke-dashoffset:0;stroke-opacity:1"
       d="m 130.45728,2.260028 c -3.63939,0.799679 -7.40446,2.3224254 -9.45674,5.6267543 -2.74195,4.1763647 -4.42604,9.0581687 -5.15062,13.9857287 -0.27713,4.360565 -0.21864,8.79073 1.07476,13.001706 0.60119,3.015549 0.71368,6.186983 0.26361,9.22028 -0.87947,2.077979 -2.06823,4.890206 -4.76342,4.835165 -5.03185,0.75107 -9.46403,3.5848 -13.568551,6.428782 -3.032498,2.046552 -6.455371,3.529137 -9.148239,6.077249 C 84.424332,66.293001 78.793586,70.76996 73.800867,75.947798 66.708563,82.817051 60.162559,90.228482 53.172546,97.189778 51.294988,98.85591 48.90035,101.07584 46.18073,100.07024 43.439998,99.604789 42.335662,96.671073 40.703797,94.792706 37.883391,90.553748 35.253317,86.150753 31.662934,82.49082 27.019145,77.55915 21.945643,72.92542 16.218361,69.282343 12.204522,67.24824 8.2479713,64.979065 4.0090449,63.460573 3.1203378,63.260279 3.2951152,64.485088 3.9015105,64.725409 c 4.0027689,2.708814 8.3825265,4.878355 12.1459605,7.955933 6.267538,5.11796 12.856983,10.221333 16.972019,17.348539 3.954981,6.452211 6.206569,13.753879 9.372486,20.594889 0.508167,0.63571 0.07448,1.86399 -0.780926,1.21994 -2.376405,-2.36953 -3.644886,-5.63252 -5.681408,-8.28738 -4.189325,-6.66982 -9.945726,-12.189763 -16.308128,-16.769053 -1.857051,-1.731335 -4.036618,-3.10588 -6.563103,-3.589745 -1.582647,-0.296764 -3.3005428,-1.269674 -4.8972924,-0.869876 0.9107551,1.225468 2.7283124,1.644396 3.9406594,2.589695 5.44764,3.431124 9.687092,8.374938 14.684591,12.375718 3.771789,3.655131 7.68848,7.427361 10.121885,12.137381 0.147444,1.01002 -1.138585,0.19342 -1.30555,-0.25317 -2.667862,-3.3707 -5.279027,-6.90492 -8.964549,-9.257684 -3.271971,-2.140487 -6.728514,-4.039113 -10.236051,-5.75065 -1.795503,-0.25872 -3.78835,-0.417129 -5.527573,0.09605 0.849318,1.035142 2.575729,1.319231 3.760611,1.969315 5.46655,2.046396 10.092414,5.720639 14.084861,9.903339 1.731343,1.87875 3.861786,3.47082 5.470662,5.41008 -0.986626,0.99435 -2.634702,-0.15635 -3.741774,-0.49695 -2.23375,-1.12278 -4.671144,-2.09923 -7.21732,-1.55925 -4.513453,0.40626 -9.100989,1.54216 -12.934384,4.01896 -0.3038494,0.63998 1.313298,0.29254 1.580127,0.50687 4.704009,0.31291 9.461611,0.43551 13.990609,1.90066 4.26618,1.18998 8.436005,2.70882 12.790729,3.57309 0.335439,0.0781 2.028378,0.48272 1.241245,0.99762 -2.89797,0.65486 -6.039712,0.18669 -8.776568,1.57073 -4.195085,1.13615 -8.765748,0.23091 -12.878527,1.70854 -0.644109,0.59799 0.719001,1.0414 1.166172,1.15469 4.103218,0.53158 8.370398,0.32846 12.392014,-0.65095 2.446391,-0.69678 5.053767,-0.81458 7.481981,-1.51017 0.8319,0.25305 -0.09646,1.38183 -0.637898,1.41517 -5.111636,2.56378 -10.614191,4.30624 -15.829455,6.60761 0.587831,1.00513 2.217998,0.99224 3.274574,1.04559 4.475345,-0.5972 8.563118,-2.79357 12.923422,-3.76997 0.695439,0.37035 -0.504745,1.12174 -0.802854,1.38177 -2.553539,2.02684 -5.765022,3.31466 -7.915249,5.79954 0.506095,0.91713 2.044261,0.67697 2.960323,0.85923 3.590094,0.44583 6.54962,-2.07492 9.110654,-4.22516 2.514039,-2.14941 3.186623,-5.48336 4.103529,-8.48476 0.13008,-0.64447 0.887711,-1.52905 1.448057,-0.71359 2.076592,1.07662 4.652724,0.90999 6.663989,2.22585 4.511913,2.93245 7.895952,7.25063 11.752005,10.95027 6.257576,6.06364 11.518043,13.63204 19.642768,17.38135 4.937598,2.36946 9.704387,5.26251 14.992676,6.78875 0.96816,0.0467 2.50391,0.34816 3.13937,-0.55699 -1.64962,-4.47252 -4.279889,-8.54686 -6.627093,-12.68585 -0.885552,-1.86446 -2.555716,-3.31751 -3.265013,-5.24313 0.526772,-0.32294 1.207796,0.81584 1.626065,1.1171 4.065299,5.20334 6.878561,11.23936 9.950051,17.05096 0.0452,3.66664 0.27281,8.03817 -2.80425,10.67199 -2.15308,1.98891 -4.746408,3.56627 -7.680862,3.99182 -3.588867,1.2586 -7.281942,2.56498 -10.432386,4.72211 -0.08582,0.69889 1.312254,0.33283 1.729422,0.36175 6.18335,-1.006 12.232672,-2.9296 17.967606,-5.42473 2.17768,-1.33501 3.33259,-3.73894 4.95493,-5.57247 0.31163,1.58169 -0.86747,3.23765 -1.76283,4.51592 -2.25414,2.27144 -5.33334,3.60413 -8.294227,4.72106 -3.322056,0.98863 -6.488854,2.4807 -9.92395,3.05324 -0.688594,0.0142 -1.453044,0.78036 -0.531926,1.17609 2.982426,2.0618 6.725748,0.9994 9.980321,0.35132 3.452012,-1.0963 6.230512,-3.64176 9.057412,-5.8126 2.08655,-1.66985 3.93406,-3.62668 5.55002,-5.73063 0.74889,-0.14178 0.2718,1.27523 0.24743,1.65895 -1.04781,4.61378 -3.61223,8.69118 -5.24725,13.07533 0.52009,0.89931 1.94095,-2.7e-4 2.66747,-0.18688 2.80862,-1.05788 4.87979,-3.41584 5.91061,-6.19867 1.24855,-2.26631 0.51364,-5.05509 1.51134,-7.34751 0.8422,0.21986 0.44608,1.63199 0.72038,2.27283 0.87589,3.1191 2.03054,6.29377 4.02679,8.87627 0.40434,0.67928 1.36239,0.53231 1.2048,-0.34818 0.0895,-5.70769 -3.3167,-10.59438 -5.37828,-15.66502 0.0611,-0.61704 0.93092,0.35743 1.17301,0.44868 4.25441,2.95471 7.00144,7.44266 9.54492,11.84624 0.5695,1.52317 2.7673,2.59467 3.97354,1.16826 0.0682,-2.11675 -1.1236,-4.14927 -1.84402,-6.10941 -2.33345,-5.63955 -7.06277,-9.8483 -11.83422,-13.44041 -2.56549,-1.92006 -5.92874,-2.39381 -8.67478,-3.81382 -0.35362,-3.30906 0.28688,-6.87649 -1.54724,-9.87331 -1.80414,-3.71675 -4.76151,-6.8371 -8.40594,-8.77291 -0.85127,-0.34208 -0.34785,-1.43034 0.47085,-0.99809 3.17186,1.4835 5.68338,4.16701 7.85052,6.86236 2.18452,3.20905 3.17892,7.08218 2.93162,10.94761 -0.18539,1.72832 2.1201,1.48565 3.15138,2.11675 5.5038,1.80986 9.52278,6.22991 13.57645,10.13693 7.00041,1.34387 14.16024,0.54458 21.20186,0.0258 1.28189,0.14125 3.00539,-1.24302 3.86406,0.2843 0.24694,0.9401 -1.376,0.83517 -1.95337,0.99913 -2.62694,0.48331 -5.4685,-0.20027 -7.9925,0.71202 -0.054,0.9224 1.1265,1.68223 1.54174,2.48408 1.51602,2.09516 3.35455,4.00453 5.83417,4.92045 2.06379,1.21706 4.60137,0.32412 6.87862,0.58945 4.26641,-0.10119 8.58148,0.17226 12.81818,-0.15822 7.90768,-2.01344 16.02632,-4.22092 22.8233,-8.86568 5.05081,-6.13979 8.91888,-13.20254 11.88031,-20.55627 0.24315,-2.45325 -0.63724,-5.13605 -2.33391,-6.92552 -1.12762,-0.70906 -1.37779,1.27819 -1.71481,1.92622 -1.26375,1.91195 -3.62284,2.89861 -5.76717,3.4625 -3.63691,0.46922 -7.20481,-0.98531 -10.77822,-1.47426 -7.23082,-1.29617 -14.2717,-3.41918 -21.08666,-6.15137 -4.6587,-2.02452 -9.42526,-3.85782 -13.79932,-6.47655 -6.53053,-3.79283 -13.24435,-7.47404 -18.69973,-12.78085 -1.51754,-1.48168 -3.66267,-2.20666 -5.1794,-3.60083 2.11582,-3.57668 5.16967,-6.54872 8.03292,-9.54005 2.34197,-2.19517 4.80373,-4.79521 8.23817,-4.94958 3.94311,-0.64817 8.02779,-0.10664 11.92846,-0.97181 3.44693,-1.064528 4.63036,-4.826559 6.77965,-7.341185 1.02194,-1.545715 2.52204,-2.693088 4.30577,-3.184118 0.58856,-0.50755 -0.65015,-1.284679 -0.80703,-1.805636 -3.82736,-5.079158 -7.90234,-9.959049 -12.38575,-14.475883 -4.66518,-5.1826 -9.27244,-10.430978 -13.61874,-15.886353 -4.13583,-5.715241 -9.01698,-10.854082 -13.00798,-16.669891 -4.40724,-7.051519 -7.41514,-15.493922 -6.41134,-23.88565 1.19491,-3.299655 3.92927,-5.974193 6.96832,-7.6177035 2.39211,-0.2244441 5.05816,-0.4224226 7.28675,0.6676515 2.38974,1.628554 4.55837,4.176678 4.31129,7.25334 0.17575,1.708808 -0.27064,3.874656 0.92187,5.282228 1.64885,0.171015 3.36161,-0.308967 4.97006,-0.528798 -1.9015,-5.019586 -0.3899,-10.964894 -3.3132,-15.6561447 -1.63216,-2.526935 -4.11316,-4.4758696 -7.09971,-5.0914053 -1.22632,0.00488 -2.57609,0.6364526 -3.81293,0.859436 z m -6.79344,53.739446 c 4.60638,-0.01437 9.46824,1.627759 12.45883,5.245166 1.39168,2.752281 3.82828,5.205236 3.80076,8.500423 0.16172,3.221572 0.35519,6.712426 -1.61824,9.482325 -2.52478,3.840578 -6.03432,7.370024 -10.66885,8.398632 -3.29528,0.872013 -6.75891,-0.208307 -9.91508,-1.175568 -5.31474,-1.916438 -8.16464,-7.3519 -9.91812,-12.372745 -0.91584,-2.543757 -0.20893,-5.283911 1.24178,-7.468886 0.80062,-1.88496 0.91945,-4.084775 2.48791,-5.591778 2.36008,-2.908202 5.86438,-4.847727 9.64676,-4.905338 0.82646,-0.06432 1.65484,-0.118091 2.48425,-0.112231 z"
       id="path989-7"
       inkscape:connector-curvature="0" />
    <path
       style="opacity:1;vector-effect:none;fill:#2c89a0;fill-opacity:1;stroke:none;stroke-width:0.00981791;stroke-linecap:square;stroke-linejoin:miter;stroke-miterlimit:4;stroke-dasharray:none;stroke-dashoffset:0;stroke-opacity:1"
       d="m 411.94937,697.05133 c -0.0582,0.0133 -0.0992,0.0619 -0.15251,0.0864 -0.0482,0.026 -0.10094,0.0478 -0.15674,0.0451 -0.1568,0.01 -0.29335,0.10604 -0.39401,0.22087 -0.16582,0.18993 -0.26898,0.42485 -0.35111,0.66077 -0.14165,0.42068 -0.21191,0.86226 -0.24721,1.30371 -0.0208,0.23233 -0.0183,0.46577 -0.0198,0.69878 0.002,0.0794 -0.004,0.1601 0.01,0.23857 0.0146,0.0604 0.091,0.0945 0.14461,0.062 0.0519,-0.0266 0.0571,-0.091 0.0799,-0.13878 0.38004,-0.9994 0.77266,-1.99422 1.17374,-2.98546 0.0177,-0.0437 0.0427,-0.0942 0.0159,-0.13983 -0.0191,-0.037 -0.0615,-0.0578 -0.10267,-0.0522 z"
       id="path94"
       inkscape:connector-curvature="0"
       transform="scale(0.26458333)" />
    <path
       style="opacity:1;vector-effect:none;fill:#2c89a0;fill-opacity:1;stroke:none;stroke-width:0.01388463;stroke-linecap:square;stroke-linejoin:miter;stroke-miterlimit:4;stroke-dasharray:none;stroke-dashoffset:0;stroke-opacity:1"
       d="m 597.17414,670.19748 c -1.16637,10e-4 -2.33221,0.0463 -3.4968,0.10767 -0.0688,0.007 -0.11395,0.0918 -0.0741,0.15003 0.0332,0.062 0.11249,0.0513 0.17181,0.0554 0.98804,0.014 1.97621,0.0177 2.96432,0.0236 1.1528,0.005 2.30561,0.006 3.45842,0.005 0.0675,-0.004 0.1382,0.007 0.20345,-0.0132 0.0654,-0.0254 0.0817,-0.12011 0.029,-0.16632 -0.0538,-0.043 -0.12828,-0.0295 -0.19212,-0.0404 -1.01866,-0.0896 -2.0416,-0.1227 -3.06398,-0.12157 z"
       id="path96"
       inkscape:connector-curvature="0"
       transform="scale(0.26458333)" />
    <path
       style="opacity:1;vector-effect:none;fill:#2c89a0;fill-opacity:1;stroke:none;stroke-width:0.00981791;stroke-linecap:square;stroke-linejoin:miter;stroke-miterlimit:4;stroke-dasharray:none;stroke-dashoffset:0;stroke-opacity:1"
       d="m 755.42802,608.64154 c -0.0574,0.0166 -0.0776,0.0783 -0.10963,0.12222 -0.3853,0.61428 -0.76957,1.22933 -1.15798,1.84149 -0.46543,0.73555 -0.93468,1.46816 -1.40682,2.19933 -0.0269,0.0359 -0.0468,0.083 -0.0272,0.1271 0.0229,0.0557 0.0975,0.0783 0.1471,0.0442 0.0436,-0.0317 0.0658,-0.0838 0.0984,-0.12557 0.49724,-0.73416 0.99025,-1.47134 1.4653,-2.22011 0.37746,-0.59575 0.74766,-1.19658 1.08929,-1.81373 0.0252,-0.0385 0.0395,-0.0907 0.0114,-0.13164 -0.0224,-0.0368 -0.0684,-0.0532 -0.10985,-0.0433 z"
       id="path98"
       inkscape:connector-curvature="0"
       transform="scale(0.26458333)" />
    <path
       style="opacity:1;vector-effect:none;fill:#2c89a0;fill-opacity:1;stroke:none;stroke-width:0.05553851;stroke-linecap:square;stroke-linejoin:miter;stroke-miterlimit:4;stroke-dasharray:none;stroke-dashoffset:0;stroke-opacity:1"
       d="m 320.71992,677.00688 c -0.19886,0.20978 -0.49139,0.41007 -0.50473,0.72687 0.0166,0.29777 0.33624,0.4342 0.58337,0.50565 0.30393,0.082 0.61545,0.15297 0.93118,0.16158 0.16102,-0.0184 0.0955,-0.22537 -0.0416,-0.22611 -0.39476,-0.13685 -0.73221,-0.4706 -0.78216,-0.8904 -0.024,-0.0955 0.012,-0.30743 -0.14114,-0.29209 -0.015,0.005 -0.03,0.01 -0.045,0.0145 z"
       id="path100"
       inkscape:connector-curvature="0"
       transform="scale(0.26458333)" />
    <path
       style="opacity:1;vector-effect:none;fill:#098dae;fill-opacity:1;stroke:none;stroke-width:0.02776925;stroke-linecap:square;stroke-linejoin:miter;stroke-miterlimit:4;stroke-dasharray:none;stroke-dashoffset:0;stroke-opacity:1"
       d="m 47.77442,354.6963 c -1.384542,0.008 -2.775434,0.0411 -4.145297,0.25928 -0.595429,0.0996 -1.20456,0.22711 -1.72291,0.55233 -0.292715,0.17832 -0.595861,0.35819 -0.822133,0.62051 -0.142222,0.16294 -0.221498,0.40197 -0.129491,0.60877 0.121321,0.27548 0.381836,0.45211 0.623233,0.61476 0.353327,0.22125 0.729925,0.40308 1.106759,0.58004 0.09807,0.0371 0.18041,-0.10248 0.102824,-0.17142 -0.444078,-0.35545 -0.871679,-0.73106 -1.255757,-1.15086 -0.08295,-0.0894 -0.164442,-0.18018 -0.24391,-0.2727 3.041796,-0.87132 6.207507,-1.20143 9.360728,-1.22593 1.096114,-0.0106 2.189748,0.0235 3.283719,0.0728 0.08101,0.021 0.177108,-0.0597 0.133064,-0.14259 -0.04774,-0.0882 -0.166887,-0.0565 -0.249517,-0.0752 -2.008825,-0.17412 -4.024535,-0.27846 -6.041312,-0.26977 z"
       id="path108"
       inkscape:connector-curvature="0"
       transform="scale(0.26458333)" />
    <path
       style="opacity:1;vector-effect:none;fill:#0d90b0;fill-opacity:1;stroke:none;stroke-width:0.00981791;stroke-linecap:square;stroke-linejoin:miter;stroke-miterlimit:4;stroke-dasharray:none;stroke-dashoffset:0;stroke-opacity:1"
       d="m 60.672538,318.29274 c -0.05708,0.016 -0.08975,0.0858 -0.06214,0.13903 0.0254,0.0508 0.08645,0.0643 0.131726,0.0923 0.835749,0.42771 1.658994,0.87826 2.470611,1.35259 0.106729,0.0609 0.210256,0.12765 0.318501,0.1857 0.05369,0.0221 0.120317,-0.0108 0.134769,-0.0668 0.01673,-0.0514 -0.0181,-0.0978 -0.05174,-0.13271 -0.131317,-0.15345 -0.259658,-0.3078 -0.365711,-0.48002 -0.05546,-0.0963 -0.09854,-0.20044 -0.170471,-0.28645 -0.140403,-0.1711 -0.327599,-0.29698 -0.521072,-0.40078 -0.383784,-0.20049 -0.808383,-0.31323 -1.236153,-0.36973 -0.207653,-0.0259 -0.417361,-0.0338 -0.626333,-0.0359 -0.0073,9.4e-4 -0.01466,0.002 -0.02198,0.003 z"
       id="path110"
       inkscape:connector-curvature="0"
       transform="scale(0.26458333)" />
    <path
       style="opacity:1;vector-effect:none;fill:#0a8eaf;fill-opacity:1;stroke:none;stroke-width:0.00981791;stroke-linecap:square;stroke-linejoin:miter;stroke-miterlimit:4;stroke-dasharray:none;stroke-dashoffset:0;stroke-opacity:1"
       d="m 31.059845,311.35202 c -0.304336,0.0349 -0.608511,0.0715 -0.912422,0.10994 -0.06015,0.009 -0.100853,0.0784 -0.07637,0.13485 0.02063,0.0552 0.08407,0.0704 0.129985,0.0981 0.52298,0.26435 1.048958,0.52273 1.572997,0.78497 0.05747,0.0271 0.113107,0.059 0.172049,0.0824 0.0605,0.0208 0.130855,-0.0301 0.128348,-0.0941 0.0022,-0.0602 -0.05375,-0.0965 -0.08929,-0.1371 -0.289459,-0.29417 -0.565059,-0.60191 -0.824377,-0.92551 -0.02376,-0.033 -0.05891,-0.0562 -0.100923,-0.0535 z"
       id="path116"
       inkscape:connector-curvature="0"
       transform="scale(0.26458333)" />
    <path
       style="opacity:1;vector-effect:none;fill:#0a8eaf;fill-opacity:1;stroke:none;stroke-width:0.01388463;stroke-linecap:square;stroke-linejoin:miter;stroke-miterlimit:4;stroke-dasharray:none;stroke-dashoffset:0;stroke-opacity:1"
       d="m 87.981618,493.44293 c -0.243631,0.017 -0.490734,0.007 -0.734877,0.041 -0.236327,0.0316 -0.48129,0.0745 -0.685001,0.20602 -0.12815,0.0819 -0.229335,0.22107 -0.228146,0.3779 0.0015,0.0706 0.0083,0.14587 0.04231,0.20822 0.03587,0.0488 0.104517,0.046 0.1521,0.0168 0.501403,-0.22161 1.005033,-0.43818 1.506458,-0.65969 0.06383,-0.0309 0.07307,-0.12775 0.01511,-0.16898 -0.01869,-0.0154 -0.04389,-0.0221 -0.06795,-0.0212 z"
       id="path118"
       inkscape:connector-curvature="0"
       transform="scale(0.26458333)" />
    <path
       style="opacity:1;vector-effect:none;fill:#0a8eaf;fill-opacity:1;stroke:none;stroke-width:0.01388463;stroke-linecap:square;stroke-linejoin:miter;stroke-miterlimit:4;stroke-dasharray:none;stroke-dashoffset:0;stroke-opacity:1"
       d="m 104.05831,497.22652 c -0.36547,0.0663 -0.7293,0.14457 -1.09383,0.21372 -1.30628,0.25452 -2.61645,0.47339 -3.935049,0.65741 -0.119104,0.0184 -0.239567,0.0312 -0.357802,0.0533 -0.07248,0.0148 -0.09893,0.11557 -0.04529,0.16568 0.05308,0.0476 0.130213,0.0256 0.19527,0.029 1.197361,-0.033 2.388741,-0.20092 3.555601,-0.46841 0.57615,-0.13219 1.14821,-0.28283 1.71404,-0.45389 0.0684,-0.0185 0.0959,-0.11168 0.047,-0.16321 -0.0197,-0.0231 -0.0504,-0.0324 -0.0799,-0.0336 z"
       id="path120"
       inkscape:connector-curvature="0"
       transform="scale(0.26458333)" />
    <path
       style="opacity:1;vector-effect:none;fill:#1192b2;fill-opacity:1;stroke:none;stroke-width:0.00981791;stroke-linecap:square;stroke-linejoin:miter;stroke-miterlimit:4;stroke-dasharray:none;stroke-dashoffset:0;stroke-opacity:1"
       d="m 96.498746,498.06126 c -0.06224,-0.004 -0.117755,0.0575 -0.103841,0.11902 0.008,0.0522 0.06089,0.0851 0.111421,0.0843 0.500312,0.0455 1.002204,0.0763 1.50458,0.0838 0.148128,0 0.296487,0.002 0.444471,-2.5e-4 0.06634,-0.002 0.113078,-0.0811 0.08237,-0.14007 -0.01884,-0.0471 -0.07308,-0.0629 -0.119911,-0.0605 -0.606896,-0.0294 -1.214014,-0.0541 -1.820925,-0.0832 -0.03271,-0.001 -0.06543,-0.003 -0.09817,-0.003 z"
       id="path122"
       inkscape:connector-curvature="0"
       transform="scale(0.26458333)" />
    <path
       style="opacity:1;vector-effect:none;fill:#1192b2;fill-opacity:1;stroke:none;stroke-width:0.00981791;stroke-linecap:square;stroke-linejoin:miter;stroke-miterlimit:4;stroke-dasharray:none;stroke-dashoffset:0;stroke-opacity:1"
       d="m 528.65292,85.662183 c -0.0637,0.0029 -0.11236,0.0749 -0.0867,0.134278 0.0143,0.04819 0.0654,0.06511 0.10942,0.07501 0.27095,0.07474 0.55345,0.0982 0.83366,0.09718 0.19192,-0.0043 0.38432,-0.01089 0.57497,-0.03406 0.061,-0.01145 0.0982,-0.08406 0.071,-0.13993 -0.02,-0.04708 -0.0733,-0.06375 -0.12081,-0.06187 -0.30151,-0.0095 -0.60132,-0.02097 -0.90177,-0.039 -0.15658,-0.0083 -0.31395,-0.02077 -0.47241,-0.03185 l -0.004,1.3e-4 z"
       id="path124"
       inkscape:connector-curvature="0"
       transform="scale(0.26458333)" />
    <path
       style="opacity:1;vector-effect:none;fill:#93aca7;fill-opacity:1;stroke:none;stroke-width:0.22215402;stroke-linecap:square;stroke-linejoin:miter;stroke-miterlimit:4;stroke-dasharray:none;stroke-dashoffset:0;stroke-opacity:1"
       d="m 459.19969,232.17338 c -3.65597,-0.0262 -7.46327,0.15046 -10.79322,1.82681 -3.02711,1.49093 -6.08377,3.03219 -8.68883,5.20524 -2.43093,1.9932 -3.87551,4.89645 -4.78659,7.84965 -1.83539,5.80916 -2.8167,11.88241 -2.88384,17.97526 -0.13317,7.10108 0.34046,14.31591 2.49918,21.12245 1.3958,4.39347 4.63309,8.19543 8.81734,10.15613 2.15132,1.03643 4.53956,1.3868 6.89818,1.55577 1.79576,0.17515 3.61533,0.29996 5.3836,0.59754 3.05827,-0.38871 6.00649,-1.36543 9.04918,-1.84698 4.31703,-0.82894 8.77181,-0.91904 12.99827,-2.21785 6.83909,-1.96408 13.27412,-5.24688 19.04122,-9.39679 4.08051,-3.00166 7.95184,-6.56775 10.21765,-11.17644 1.01801,-1.91094 1.85841,-4.01419 1.71167,-6.22139 -0.175,-3.96108 -1.61798,-7.73899 -3.24564,-11.30955 -2.31679,-4.84512 -5.15187,-9.59402 -9.22765,-13.16936 -1.11448,-0.96454 -2.43333,-1.79853 -3.93777,-1.91675 -1.59052,-0.42486 -2.97941,-1.3647 -4.40541,-2.15794 -2.62157,-1.54108 -5.0503,-3.40802 -7.74513,-4.82627 -3.55716,-1.80325 -7.64936,-1.70722 -11.53023,-1.89273 -3.12283,-0.10218 -6.24743,-0.16036 -9.37198,-0.1568 z m 11.93329,10.62957 c 2.21267,0.009 4.49626,0.003 6.54022,0.92963 2.74467,1.21747 5.01497,3.269 7.30338,5.16759 2.74766,2.41518 5.48201,5.05807 6.92283,8.48979 1.82748,4.3223 1.77981,9.11382 1.76838,13.73091 0.0983,2.94391 -1.51804,5.55909 -3.13274,7.89075 -1.75295,2.53104 -4.20989,4.58968 -7.11008,5.66465 -3.79465,1.44148 -7.7244,2.53934 -11.6731,3.48129 -4.06742,0.90961 -8.26107,1.6214 -12.43116,1.21828 -2.54203,-0.25386 -4.79128,-1.57485 -6.73139,-3.17485 -3.75988,-3.09709 -6.97124,-6.84473 -9.53857,-10.98195 -0.95433,-1.63101 -1.90141,-3.33831 -2.26294,-5.20854 -0.0809,-1.00687 -0.0472,-2.0513 0.3993,-2.96463 1.59544,-3.90751 3.8896,-7.50151 6.22054,-11.01169 1.51183,-2.17015 2.98979,-4.37581 4.688,-6.406 2.22745,-2.25256 5.19023,-3.58507 8.10647,-4.68554 3.50888,-1.23326 7.20086,-2.11594 10.93086,-2.13969 z"
       id="path126"
       inkscape:connector-curvature="0"
       transform="scale(0.26458333)" />
    <path
       style="opacity:1;vector-effect:none;fill:#217867;fill-opacity:1;stroke:none;stroke-width:0.88861609;stroke-linecap:square;stroke-linejoin:miter;stroke-miterlimit:4;stroke-dasharray:none;stroke-dashoffset:0;stroke-opacity:1"
       d="m 467.19898,216.13238 c -8.55583,0.50843 -17.16964,1.82898 -25.27631,4.67353 -5.27514,2.78283 -9.49384,7.20397 -13.68728,11.37135 -3.27622,2.95986 -5.00906,7.02691 -6.715,10.98324 -3.35245,7.65992 -7.86921,14.88626 -10.14763,22.97413 -1.68088,8.56579 1.62595,17.1588 5.10386,24.84699 5.0572,10.78292 12.84745,20.39526 22.78316,27.02999 8.02486,5.60936 17.92183,7.00584 27.36468,8.40387 2.36951,0.58417 4.75324,1.23277 7.22574,0.73749 18.08619,-2.17927 34.3246,-13.89455 43.4919,-29.43539 5.20731,-9.27364 8.1432,-19.98854 7.20219,-30.66656 -0.66414,-13.05806 -8.18557,-24.38567 -16.11669,-34.27272 -4.63331,-5.86331 -10.9072,-10.60593 -18.29003,-12.28203 -7.2672,-1.85921 -14.5983,-3.94498 -22.11685,-4.37563 -0.27392,0.004 -0.54783,0.008 -0.82174,0.0117 z m -8.95415,10.2054 c 6.8986,0.29545 13.8816,0.55668 20.65732,1.9183 3.87434,1.03646 6.59403,4.33114 10.30346,5.79358 4.96957,2.87843 11.43996,3.84283 14.70284,9.04599 5.09216,7.216 9.30795,15.4025 10.69914,24.18458 0.6768,5.73083 -3.13378,10.75691 -6.27169,15.19602 -6.08796,8.40444 -15.94811,12.8379 -25.35323,16.44736 -8.57923,2.88035 -17.57885,4.72654 -26.62646,5.09095 -5.85663,-0.11962 -11.7274,-1.40757 -17.14526,-3.63014 -7.1454,-3.48445 -10.00352,-11.72468 -11.50844,-18.99106 -1.35257,-7.78406 -1.14195,-15.80823 -0.43232,-23.65415 1.01899,-6.09235 2.17011,-12.3196 4.91319,-17.90011 4.83433,-6.21898 12.25345,-9.86509 19.51684,-12.47857 2.10553,-0.73893 4.32118,-1.03874 6.54461,-1.02275 z"
       id="path128"
       inkscape:connector-curvature="0"
       transform="scale(0.26458333)" />
    <path
       style="opacity:1;vector-effect:none;fill:#0000d4;fill-opacity:1;stroke:none;stroke-width:0.44430804;stroke-linecap:square;stroke-linejoin:miter;stroke-miterlimit:4;stroke-dasharray:none;stroke-dashoffset:0;stroke-opacity:1"
       d="m 260.32552,246.4027 c -0.71203,-0.16211 -1.06075,0.69848 -0.57556,1.17426 2.54661,3.47169 6.98742,4.44498 10.91458,5.45487 3.42653,0.85246 6.66867,2.26564 9.9065,3.64647 3.0297,1.35991 6.64523,0.61697 9.49992,2.41504 1.43051,0.87106 1.62052,3.02574 0.36219,4.12076 -2.00525,2.058 -5.05979,2.33979 -7.68944,3.08772 -9.01643,2.00416 -18.17363,3.41067 -27.39381,3.99002 -0.5974,0.0699 -1.936,0.21767 -1.58445,1.11924 1.33158,2.22362 4.14735,2.76437 6.50207,3.20546 5.66378,0.63163 11.43335,-0.0784 16.87566,-1.72581 2.79724,-0.83267 5.65941,-1.51094 8.54911,-1.82043 3.24208,-1.30717 5.84319,-3.77433 8.57332,-5.88736 4.06789,-3.36721 7.98055,-6.97451 11.3586,-11.04211 0.32035,-0.57365 1.17705,-1.26194 0.85384,-1.97044 -1.61855,-0.59294 -3.45081,-0.32224 -5.15204,-0.47935 -7.37023,-0.27917 -14.79233,0.0936 -22.11541,-0.88283 -6.27541,-0.96979 -12.26682,-3.31812 -18.52842,-4.38859 -0.11851,-0.003 -0.23767,-0.0239 -0.35666,-0.0169 z"
       id="path130"
       inkscape:connector-curvature="0"
       transform="scale(0.26458333)" />
    <path
       style="opacity:1;vector-effect:none;fill:#0000d4;fill-opacity:1;stroke:none;stroke-width:0.44430804;stroke-linecap:square;stroke-linejoin:miter;stroke-miterlimit:4;stroke-dasharray:none;stroke-dashoffset:0;stroke-opacity:1"
       d="m 273.10524,281.28468 c -4.50834,0.30048 -8.71251,2.21625 -13.18548,2.75366 -3.16106,0.61683 -6.41928,0.41369 -9.58039,1.00216 -0.58752,0.0532 -0.81445,0.7474 -0.28968,1.08655 1.70069,1.52746 4.07084,1.96674 6.15826,2.75279 3.49417,1.34362 7.49714,1.10274 10.80954,-0.63837 2.75008,-1.45306 5.37482,-3.30783 7.38871,-5.69242 0.41597,-0.56738 -0.0224,-1.35391 -0.73542,-1.25401 -0.18809,-0.0157 -0.37703,-0.0141 -0.56554,-0.0104 z"
       id="path132"
       inkscape:connector-curvature="0"
       transform="scale(0.26458333)" />
    <path
       style="opacity:1;vector-effect:none;fill:#ffffff;fill-opacity:1;stroke:none;stroke-width:0.31417322;stroke-linecap:square;stroke-linejoin:miter;stroke-miterlimit:4;stroke-dasharray:none;stroke-dashoffset:0;stroke-opacity:1"
       d="m 509.37959,411.60897 c -1.93533,0.0546 -3.36852,2.20669 -2.86426,4.01929 0.49218,1.18458 2.01556,1.09395 3.07178,0.95996 0.99905,-0.12203 1.87887,-0.94072 1.83618,-1.99267 0.16562,-1.0986 -0.0824,-2.53808 -1.31518,-2.88965 -0.23463,-0.0754 -0.48255,-0.10537 -0.72852,-0.0969 z"
       id="path134"
       inkscape:connector-curvature="0"
       transform="scale(0.26458333)" />
    <path
       style="opacity:1;vector-effect:none;fill:#ffffff;fill-opacity:1;stroke:none;stroke-width:0.31417322;stroke-linecap:square;stroke-linejoin:miter;stroke-miterlimit:4;stroke-dasharray:none;stroke-dashoffset:0;stroke-opacity:1"
       d="m 525.99995,396.59823 c -1.8518,0.16355 -3.0604,1.89664 -3.82104,3.42676 -0.88762,1.81083 -0.0293,3.86237 0.67835,5.57883 0.80701,1.80861 1.51066,3.68417 2.46178,5.41726 0.44305,-0.0952 0.29713,-0.87482 0.46655,-1.20863 0.67803,-3.65924 1.5144,-7.31083 1.78956,-11.02843 0.0445,-0.97646 -0.3993,-2.23759 -1.5752,-2.18579 z"
       id="path136"
       inkscape:connector-curvature="0"
       transform="scale(0.26458333)" />
    <path
       style="opacity:1;vector-effect:none;fill:#ffffff;fill-opacity:1;stroke:none;stroke-width:0.31417322;stroke-linecap:square;stroke-linejoin:miter;stroke-miterlimit:4;stroke-dasharray:none;stroke-dashoffset:0;stroke-opacity:1"
       d="m 542.9814,388.59237 c -1.86167,0.15751 -3.7918,0.21337 -5.55909,0.86719 -0.67218,0.23344 -1.10358,0.98884 -0.76855,1.66772 1.94711,5.60121 3.34899,11.37197 4.97851,17.06446 0.42579,0.27736 0.29893,-0.61741 0.39673,-0.83881 0.71659,-5.50393 1.39821,-11.01193 2.62714,-16.43047 0.1839,-0.75754 0.37867,-1.91944 -0.56097,-2.25978 -0.36046,-0.099 -0.74429,-0.0668 -1.11377,-0.0703 z"
       id="path138"
       inkscape:connector-curvature="0"
       transform="scale(0.26458333)" />
    <path
       style="opacity:1;vector-effect:none;fill:#ffffff;fill-opacity:1;stroke:none;stroke-width:0.31417322;stroke-linecap:square;stroke-linejoin:miter;stroke-miterlimit:4;stroke-dasharray:none;stroke-dashoffset:0;stroke-opacity:1"
       d="m 555.94502,388.2994 c -1.15388,0.11056 -2.6084,-0.18673 -3.50757,0.72852 -0.5436,0.71062 0.33971,1.48385 0.6919,2.04809 1.49901,2.47931 2.18022,5.33916 3.09423,8.0647 1.16255,3.61905 2.03343,7.33883 3.38819,10.89307 0.0909,0.40939 0.68494,0.72887 0.85986,0.19702 0.741,-2.19808 0.82331,-4.56009 1.18239,-6.84005 0.56061,-3.99695 0.92668,-8.11701 2.67674,-11.80058 0.23896,-0.77596 0.42925,-1.92407 -0.45801,-2.36645 -1.76367,-0.93942 -3.85996,-0.80344 -5.79834,-0.91528 -0.70971,-0.0117 -1.4196,-0.0149 -2.12939,-0.009 z"
       id="path140"
       inkscape:connector-curvature="0"
       transform="scale(0.26458333)" />
    <path
       style="opacity:1;vector-effect:none;fill:#ffffff;fill-opacity:1;stroke:none;stroke-width:0.31417322;stroke-linecap:square;stroke-linejoin:miter;stroke-miterlimit:4;stroke-dasharray:none;stroke-dashoffset:0;stroke-opacity:1"
       d="m 571.82588,387.09774 c -0.66799,-0.0776 -1.61807,0.34155 -1.3501,1.15723 0.54962,1.55519 2.07259,2.49573 2.76099,3.9856 2.99134,5.36574 3.80683,11.57487 6.0415,17.24243 0.13445,0.35499 0.61747,1.12676 1.00415,0.59472 0.61267,-1.15911 0.50958,-2.56255 0.71881,-3.83094 0.38176,-4.61556 0.86061,-9.25622 0.59816,-13.89061 -0.12554,-1.55228 -0.85784,-3.18761 -2.38069,-3.81141 -2.30011,-0.96441 -4.82498,-1.36664 -7.30833,-1.4483 z"
       id="path142"
       inkscape:connector-curvature="0"
       transform="scale(0.26458333)" />
    <path
       style="opacity:1;vector-effect:none;fill:#ffffff;fill-opacity:1;stroke:none;stroke-width:0.31417322;stroke-linecap:square;stroke-linejoin:miter;stroke-miterlimit:4;stroke-dasharray:none;stroke-dashoffset:0;stroke-opacity:1"
       d="m 603.64668,377.38705 c -3.0013,2.13199 -5.56494,5.03537 -9.06274,6.37353 -1.35315,0.4328 -3.10616,0.37001 -3.99488,1.70118 -0.88574,1.3725 -0.27994,3.082 -0.0613,4.5625 0.97206,4.26981 2.25984,8.50405 4.17505,12.45141 0.40807,0.64659 0.77286,1.62922 1.60718,1.79151 0.84001,-0.34626 1.09652,-1.4006 1.46435,-2.14942 1.87243,-5.28245 2.75182,-10.84629 4.03246,-16.28731 0.56456,-2.8051 1.40551,-5.55148 1.98073,-8.35014 -0.004,-0.0637 -0.0803,-0.11674 -0.14087,-0.0933 z"
       id="path144"
       inkscape:connector-curvature="0"
       transform="scale(0.26458333)" />
    <path
       style="opacity:1;vector-effect:none;fill:#ffffff;fill-opacity:1;stroke:none;stroke-width:0.31417322;stroke-linecap:square;stroke-linejoin:miter;stroke-miterlimit:4;stroke-dasharray:none;stroke-dashoffset:0;stroke-opacity:1"
       d="m 628.11519,346.97445 c -2.134,0.65665 -4.27504,1.37768 -6.28032,2.36907 -0.97073,0.38616 -1.44272,1.32293 -1.91915,2.1761 -2.19099,3.19291 -4.96331,5.9742 -6.92944,9.33447 -1.77416,2.85874 -3.15826,5.93165 -4.60327,8.96313 1.88171,2.20723 4.31208,4.07306 5.74213,6.66817 4.17713,6.99673 5.52569,15.24954 9.5554,22.31867 0.54594,0.77196 0.96797,1.8024 1.8636,2.22483 0.76466,0.0382 0.8073,-1.00986 0.93579,-1.55004 0.81463,-5.99786 0.9774,-12.0621 1.26628,-18.10222 0.42636,-10.92828 0.43084,-21.86771 0.52111,-32.80257 -0.0854,-0.50461 0.16335,-1.18986 -0.12088,-1.59985 l -0.0139,-4.9e-4 z"
       id="path146"
       inkscape:connector-curvature="0"
       transform="scale(0.26458333)" />
    <path
       style="opacity:1;vector-effect:none;fill:#ffffff;fill-opacity:1;stroke:none;stroke-width:0.15708661;stroke-linecap:square;stroke-linejoin:miter;stroke-miterlimit:4;stroke-dasharray:none;stroke-dashoffset:0;stroke-opacity:1"
       d="m 508.59729,445.00465 c -0.71507,-8.5e-4 -1.06319,0.77814 -1.08459,1.39734 -0.0803,1.75024 0.61274,3.43579 1.42734,4.95012 0.99233,1.69878 2.26744,3.26653 3.84219,4.45723 0.47546,0.32585 1.1691,0.74654 1.7146,0.34277 0.48493,-0.53394 0.29051,-1.33523 0.1759,-1.97388 -0.56249,-2.22591 -1.6359,-4.29509 -2.86815,-6.21981 -0.74114,-1.05934 -1.48477,-2.21273 -2.63478,-2.86747 -0.17978,-0.0757 -0.37901,-0.0968 -0.57251,-0.0863 z"
       id="path148"
       inkscape:connector-curvature="0"
       transform="scale(0.26458333)" />
    <path
       style="opacity:1;vector-effect:none;fill:#ffffff;fill-opacity:1;stroke:none;stroke-width:0.44430804;stroke-linecap:square;stroke-linejoin:miter;stroke-miterlimit:4;stroke-dasharray:none;stroke-dashoffset:0;stroke-opacity:1"
       d="m 574.53152,443.21184 c -1.34101,0.52163 -1.55117,2.25088 -2.06641,3.41966 -2.57897,8.20322 -3.50717,16.95217 -7.39183,24.7089 -1.21561,2.27171 -2.39179,4.86581 -4.67768,6.24519 -0.78271,0.53169 -1.5341,-0.12327 -1.93832,-0.79273 -4.1506,-5.82132 -7.12755,-12.36995 -10.49444,-18.6524 -1.92427,-3.46108 -3.49337,-7.1651 -5.87674,-10.34589 -0.58422,-0.8686 -1.88269,-1.534 -2.73659,-0.61802 -2.00169,2.14326 -2.931,5.04545 -3.98442,7.72477 -1.5574,4.71184 -2.97906,9.63678 -2.75485,14.64749 0.29983,1.9556 2.45069,2.77127 3.85366,3.83199 6.33534,4.00817 12.77945,7.84056 19.27283,11.58546 2.16076,1.19047 3.78548,3.10639 5.96356,4.28625 9.65879,5.87563 19.69818,11.10058 29.74308,16.27859 2.83705,1.44339 5.72095,2.83426 8.80736,3.65522 6.2379,2.30727 12.1346,5.43232 18.32433,7.87132 13.69035,5.59933 27.75781,10.21131 41.55676,15.52927 8.70004,3.20237 17.9866,4.13963 27.014,6.01298 14.0426,2.55977 27.98913,5.67384 42.11155,7.78139 4.41661,0.54701 8.92597,1.32483 13.36877,0.65683 4.13283,-1.46782 8.22281,-3.19782 11.93991,-5.54619 3.41773,-2.16093 6.45118,-5.63789 6.55963,-9.86832 0.22626,-1.53947 -0.24045,-3.14558 -1.46166,-4.16178 -3.3267,-3.15887 -4.98146,-7.58132 -6.70142,-11.72797 -2.55436,-6.58685 -4.16483,-13.48642 -5.11235,-20.47435 -0.77142,-4.8265 -2.49209,-9.4852 -2.69422,-14.40033 -0.22585,-7.14462 -2.31516,-14.06669 -4.6892,-20.75514 -0.38222,-0.62674 -0.43934,-1.92862 -1.3417,-2.01429 -0.96277,0.60291 -1.02728,1.98713 -1.42906,2.95963 -3.00777,11.26146 -4.1772,22.90613 -6.44151,34.31618 -0.83688,3.27232 -1.38902,6.79128 -3.29606,9.64321 -0.61555,1.00397 -2.04125,1.2431 -2.91474,0.42365 -2.42729,-2.18039 -3.65366,-5.33607 -4.9387,-8.2581 -2.03604,-4.85059 -3.14785,-10.00823 -4.22841,-15.13773 -1.82745,-7.45586 -3.76832,-14.89158 -6.00122,-22.23602 -0.49647,-0.996 -0.71341,-2.46677 -1.82053,-2.97035 -1.15038,0.10932 -1.27385,1.63421 -1.53126,2.50975 -1.13404,6.70629 -1.22398,13.53601 -1.61873,20.31312 -0.41773,7.46149 -0.51369,14.99203 -1.93735,22.34501 -0.52643,2.12538 -1.12897,4.73474 -3.28228,5.78593 -1.7744,0.4861 -2.97855,-1.37264 -3.81865,-2.6261 -2.09615,-3.61756 -3.20506,-7.70578 -4.7363,-11.58052 -2.51675,-6.51165 -4.40181,-13.23096 -6.33676,-19.93096 -2.10278,-6.6125 -4.20035,-13.27747 -7.27339,-19.51518 -0.32345,-0.50679 -0.8373,-1.79615 -1.60239,-1.21983 -1.08462,1.7523 -1.30929,3.90724 -1.83058,5.87296 -1.93307,9.63867 -3.30628,19.38252 -5.45808,28.97833 -1.2406,5.4964 -2.35289,11.04754 -4.20217,16.37804 -0.17854,0.6984 -0.89211,1.32685 -1.61412,0.85281 -2.03545,-0.90896 -3.66289,-2.67517 -4.65961,-4.64396 -1.04753,-2.7579 -2.10984,-5.52843 -3.69758,-8.03562 -2.19633,-3.50501 -4.07872,-7.25336 -4.85514,-11.34755 -0.76662,-3.32479 -2.5811,-6.26918 -3.49048,-9.55038 -1.18832,-3.44135 -2.05704,-7.02885 -3.6928,-10.29487 -0.25165,-0.78461 -1.22306,-0.76795 -1.61585,-0.13535 -1.36737,2.42586 -1.56931,5.31514 -2.01404,8.01574 -0.79765,7.9986 -3.32409,15.68788 -5.9492,23.24646 -0.93731,2.14774 -1.41161,4.75907 -3.38189,6.24864 -1.58345,1.11256 -3.83653,0.13874 -4.54544,-1.55473 -2.14221,-4.30873 -3.33349,-9.01217 -5.23252,-13.4302 -3.39345,-8.8456 -7.85509,-17.22765 -11.39588,-26.00723 -1.06642,-2.4638 -1.67374,-5.08537 -2.56672,-7.60589 -0.0925,-0.4532 -0.83056,-1.34163 -1.08379,-0.51825 -0.74426,5.40728 -0.83772,10.88826 -1.15687,16.33428 -0.39266,7.14744 -0.45976,14.33869 -1.22793,21.44988 -0.17418,1.34441 -0.513,3.30375 -2.19724,3.44797 -2.23309,0.17093 -3.82378,-1.89167 -5.07665,-3.46918 -3.45507,-4.95279 -5.82066,-10.57331 -8.3601,-16.03253 -3.39585,-7.53054 -6.35371,-15.24565 -9.05748,-23.0474 -0.76566,-1.66114 -1.17103,-3.79804 -2.8311,-4.82428 -0.0613,-0.0225 -0.12771,-0.0342 -0.19301,-0.0273 z"
       id="path150"
       inkscape:connector-curvature="0"
       transform="scale(0.26458333)" />
    <path
       style="opacity:1;vector-effect:none;fill:#1d9ab9;fill-opacity:1;stroke:none;stroke-width:0.03927165;stroke-linecap:square;stroke-linejoin:miter;stroke-miterlimit:4;stroke-dasharray:none;stroke-dashoffset:0;stroke-opacity:1"
       d="m 426.78746,588.22585 c -0.0829,0.0993 -0.025,0.24327 -0.0425,0.36252 0.003,0.22947 -0.006,0.45837 -0.0103,0.6854 0.10165,0.10275 0.25769,0.12963 0.38329,0.19876 0.0939,0.0333 0.23064,0.14428 0.30531,0.0218 0.0272,-0.12114 -0.0874,-0.21555 -0.12796,-0.32102 -0.15968,-0.28601 -0.26158,-0.59981 -0.36336,-0.90839 -0.0253,-0.057 -0.0934,-0.0665 -0.14449,-0.0391 z"
       id="path152"
       inkscape:connector-curvature="0"
       transform="scale(0.26458333)" />
    <path
       style="opacity:1;vector-effect:none;fill:#1d9ab9;fill-opacity:1;stroke:none;stroke-width:0.01963583;stroke-linecap:square;stroke-linejoin:miter;stroke-miterlimit:4;stroke-dasharray:none;stroke-dashoffset:0;stroke-opacity:1"
       d="m 393.20008,602.94302 c -0.0807,0.0562 -0.13502,0.14313 -0.2059,0.21091 -0.15805,0.1692 -0.33114,0.32332 -0.50684,0.47361 -0.0647,0.0588 -0.0169,0.18054 0.071,0.1757 0.10039,-0.0149 0.19586,-0.0572 0.29304,-0.0866 0.17792,-0.0661 0.36655,-0.12609 0.51299,-0.2516 0.0675,-0.058 0.0944,-0.15544 0.0594,-0.23842 -0.0315,-0.0872 -0.0554,-0.18032 -0.10704,-0.25815 -0.0299,-0.0317 -0.0761,-0.0405 -0.11663,-0.0254 z"
       id="path154"
       inkscape:connector-curvature="0"
       transform="scale(0.26458333)" />
    <path
       style="opacity:1;vector-effect:none;fill:#098eaf;fill-opacity:1;stroke:none;stroke-width:0.03927165;stroke-linecap:square;stroke-linejoin:miter;stroke-miterlimit:4;stroke-dasharray:none;stroke-dashoffset:0;stroke-opacity:1"
       d="m 405.05118,669.43744 c -0.15933,0.0816 -0.28876,0.21626 -0.43531,0.31966 -2.14905,1.69475 -4.28861,3.40156 -6.44763,5.08363 -0.0895,0.0446 -0.0919,0.19179 0.0179,0.21051 0.13096,-0.0147 0.22763,-0.12718 0.34107,-0.18645 1.32091,-0.87932 2.60614,-1.81347 3.8303,-2.82374 0.95275,-0.77899 1.87421,-1.59622 2.78099,-2.42758 0.0675,-0.07 0.01,-0.18665 -0.0873,-0.17603 z"
       id="path156"
       inkscape:connector-curvature="0"
       transform="scale(0.26458333)" />
  </g>
  <g
     inkscape:label="Layer 1"
     inkscape:groupmode="layer"
     id="layer1"
     transform="translate(-0.34291322,-2.4549991)">
    <path
       style="fill:#000000;stroke-width:0.32868159"
       d="m 107.38403,189.18348 c -0.82535,-0.88591 -0.82984,-0.80692 0.13697,-2.40313 1.21306,-2.00275 4.21225,-8.07311 4.06263,-8.22272 -0.0727,-0.0727 -0.67056,0.34261 -1.32866,0.92282 -0.6581,0.58023 -1.53208,1.35076 -1.94217,1.71231 -0.41011,0.36154 -1.49788,1.10108 -2.41729,1.64341 -0.91941,0.54232 -2.38781,1.46056 -3.26311,2.04051 -0.92794,0.61483 -2.22466,1.13972 -3.110049,1.2589 -0.835208,0.11242 -2.380963,0.41443 -3.435022,0.6711 -2.298642,0.55976 -3.481498,0.58704 -4.717934,0.10882 -0.508904,-0.19681 -1.160234,-0.40559 -1.447407,-0.46393 -2.100266,-0.42662 -3.347806,-1.01581 -3.60975,-1.70476 -0.260527,-0.68523 -0.496594,-0.76025 -2.392521,-0.76025 -2.952704,0 -4.157748,-0.28638 -4.157748,-0.98812 0,-0.67418 1.641475,-1.98287 3.286824,-2.62045 0.632709,-0.24517 1.318524,-0.57311 1.524019,-0.72874 0.783482,-0.59332 3.637886,-1.92743 5.213955,-2.43691 0.90387,-0.29219 1.984202,-0.74502 2.400745,-1.00628 0.416529,-0.26125 1.881056,-0.69002 3.254499,-0.95281 2.131074,-0.40774 4.438123,-1.38097 5.026899,-2.12058 0.0905,-0.11354 0.61642,-0.46913 1.16896,-0.79017 0.55253,-0.32107 1.17294,-0.90156 1.37867,-1.28999 1.22704,-2.3167 1.49496,-3.1907 1.52632,-4.9791 l 0.0345,-1.97209 -1.80776,-0.0507 c -2.50609,-0.0702 -3.652734,-0.42617 -7.62924,-2.36816 -1.90292,-0.92934 -3.579973,-1.6897 -3.72677,-1.6897 -0.146798,0 -1.75616,-0.87733 -3.576359,-1.94964 -1.820197,-1.07231 -3.975023,-2.2095 -4.788518,-2.52709 -2.314071,-0.90344 -7.893007,-5.92659 -12.251554,-11.03106 -2.240512,-2.62394 -13.300213,-13.74132 -14.864671,-14.9422 -0.7231,-0.55504 -1.85729,-1.26336 -2.520425,-1.57403 -1.163674,-0.54517 -4.820359,-1.22345 -5.248503,-0.97354 -0.115083,0.0673 -0.312963,0.67842 -0.439725,1.35832 -0.334221,1.79264 -2.299287,5.7149 -3.36505,6.71664 -2.071722,1.94727 -6.477488,4.47579 -8.426541,4.83609 -3.073563,0.56818 -6.577118,-0.49024 -6.983586,-2.10974 -0.252713,-1.00688 0.232034,-1.6347 1.931724,-2.50182 1.832689,-0.93497 1.274772,-1.12878 -0.903387,-0.31382 -2.304853,0.86235 -4.420757,0.86116 -6.748322,-0.004 -0.994263,-0.36947 -2.200053,-0.74907 -2.679537,-0.84356 -0.589889,-0.11628 -0.920544,-0.42684 -1.022565,-0.96052 -0.129973,-0.67992 0.01298,-0.82727 1.03613,-1.06798 0.652798,-0.15358 1.926438,-0.45607 2.830312,-0.67221 1.54266,-0.3689 6.733521,-2.23911 7.043955,-2.53786 0.0779,-0.0749 -2.36256,-0.10001 -5.423245,-0.0555 -5.274056,0.0765 -5.667953,0.038 -7.536978,-0.73544 -2.584748,-1.06968 -2.835183,-1.97919 -0.757911,-2.75251 2.519254,-0.93786 6.148089,-1.51362 9.539915,-1.51362 2.869915,0 3.553485,-0.11241 5.083481,-0.83626 1.680266,-0.79489 2.049336,-1.46451 0.807183,-1.46451 -0.314726,0 -0.71274,-0.12825 -0.884476,-0.285 -0.488993,-0.44631 -3.457953,-1.3584 -4.42175,-1.3584 -0.478459,0 -1.968152,-0.39356 -3.310435,-0.87456 -2.124186,-0.7612 -2.994331,-0.88103 -6.713369,-0.92445 -5.783399,-0.0675 -7.9484249,-0.3962 -8.169135,-1.24019 -0.3854158,-1.47385 1.1974684,-2.5867 6.667641,-4.68774 2.941363,-1.12975 3.84659,-1.30153 8.757626,-1.66184 2.415615,-0.17721 3.178643,-0.11788 4.010026,0.3121 0.564714,0.29203 1.191909,0.53095 1.393764,0.53095 0.618523,0 -1.986673,-2.92277 -4.598712,-5.15928 -1.360495,-1.16491 -2.769437,-2.38211 -3.130988,-2.70492 -1.116342,-0.99667 -4.24786,-2.63282 -6.081119,-3.17724 -0.960347,-0.28518 -2.499378,-0.856015 -3.420069,-1.268508 -0.920692,-0.41248 -2.3765417,-1.011573 -3.2352221,-1.331319 -2.4772384,-0.922429 -2.0542591,-1.730817 1.3592131,-2.597692 2.442462,-0.620286 5.962662,-0.42566 7.268678,0.401859 1.245691,0.789295 3.678671,2.068141 4.601542,2.418707 0.71119,0.270155 0.644886,0.12373 -0.493023,-1.089127 C 16.99511,91.772768 13.812002,89.206891 9.917059,87.302095 4.1378629,84.475814 3.5077683,84.068924 3.5077683,83.163179 c 0,-0.790935 0.051331,-0.808935 1.7255775,-0.605216 0.9490693,0.11553 2.4257436,0.27829 3.2815015,0.361795 0.8557569,0.08348 2.4087777,0.461985 3.4511567,0.841048 1.042379,0.379064 2.666953,0.87834 3.610164,1.109513 1.251217,0.306652 2.350787,0.943671 4.066484,2.355849 1.293352,1.064555 3.133133,2.453217 4.088403,3.085938 2.519115,1.668505 9.513455,8.964006 11.02372,11.498394 0.702013,1.17803 1.735045,2.65956 2.295631,3.29228 l 1.019251,1.15038 -0.214849,-0.98604 c -0.118163,-0.54234 -0.410404,-1.42977 -0.649415,-1.9721 -0.239014,-0.54233 -0.634352,-1.49765 -0.87853,-2.12294 -0.658668,-1.686722 -4.074761,-8.34929 -4.946122,-9.646658 -1.940322,-2.888915 -5.724723,-7.229077 -7.581033,-8.694349 -1.127562,-0.890031 -3.455226,-2.90627 -5.172587,-4.480512 C 14.773303,74.817881 12.604847,73.31241 7.7428795,70.794048 3.421846,68.555891 0.43693505,66.078773 0.35381037,64.662024 0.30532464,63.835647 0.32628162,63.828666 2.4814979,63.954209 c 1.6038658,0.09342 2.7172374,0.397498 4.230915,1.155514 1.1298446,0.5658 2.0542601,1.143154 2.0542601,1.28302 0,0.139853 0.223867,0.254278 0.4974818,0.254278 0.2736159,0 0.7543122,0.143369 1.0682162,0.318603 0.313903,0.17522 1.753987,0.86501 3.200185,1.532863 2.57893,1.19093 5.567023,2.88679 6.273034,3.560183 0.196222,0.187159 0.961123,0.830775 1.699781,1.430265 0.738657,0.599478 1.761366,1.452688 2.272687,1.896025 0.511319,0.443326 1.521299,1.20554 2.244398,1.693811 1.525848,1.030319 2.724496,2.204815 5.958076,5.837994 5.517657,6.199528 6.293365,7.163447 7.337143,9.1174 2.367903,4.432722 5.888715,8.524705 7.733064,8.987625 2.124759,0.53327 4.767672,-1.145418 8.500882,-5.399454 1.055952,-1.203266 3.001875,-3.297059 4.324276,-4.652875 1.322403,-1.355804 4.060575,-4.160706 6.084833,-6.233095 3.055243,-3.127889 3.576947,-3.803679 3.071059,-3.97808 -0.335176,-0.11553 -1.422899,-0.471637 -2.41716,-0.791283 -3.039007,-0.977013 -4.783691,-2.612326 -3.910088,-3.664943 0.323674,-0.390008 0.85683,-0.446941 2.570092,-0.274478 l 2.1617,0.217619 -2.118446,-1.512278 c -1.165146,-0.831744 -2.237469,-1.512267 -2.38294,-1.512267 -0.145474,0 -0.264497,-0.443723 -0.264497,-0.986044 0,-1.139055 -0.01973,-1.134471 2.106498,-0.489464 1.976519,0.599602 4.421683,0.605814 6.603564,0.01677 l 1.643449,-0.44335 -0.925273,-0.363536 c -0.508896,-0.199954 -1.15702,-0.363548 -1.440271,-0.363548 -1.492382,0 -6.015836,-4.374348 -6.015836,-5.817533 0,-0.91562 0.435645,-0.955348 1.592669,-0.145232 0.908998,0.63646 3.570609,1.544019 7.374785,2.514671 1.769304,0.451439 2.922623,0.522719 5.587588,0.345336 4.940696,-0.32885 5.387562,-0.506755 8.329671,-3.316029 2.585592,-2.468845 5.692674,-4.730753 8.604347,-6.263828 0.848886,-0.446964 2.135062,-1.299883 2.858161,-1.895375 1.493898,-1.230268 5.840398,-3.828174 6.404828,-3.828174 0.20561,0 1.18349,-0.383016 2.17303,-0.851147 0.98955,-0.468131 2.92313,-1.046324 4.29683,-1.284875 2.59889,-0.451303 2.65754,-0.491901 3.77696,-2.614001 0.96658,-1.832364 1.17156,-5.874109 0.45088,-8.890262 -1.02329,-4.28254 -1.81882,-8.865511 -1.81882,-10.477938 0,-2.914056 1.03718,-8.202756 2.3072,-11.764771 1.41516,-3.969045 2.4952,-5.985251 4.41629,-8.2442944 2.56036,-3.0107712 4.31296,-3.8708257 10.52105,-5.1629759 2.68961,-0.5598163 3.077,-0.5701432 4.43719,-0.1182882 3.36948,1.1193431 5.97583,3.3749413 7.69178,6.6566235 1.0471,2.002535 1.34806,3.435394 1.8344,8.733385 0.19914,2.169298 0.43701,4.186486 0.52862,4.482637 0.22789,0.736799 2.3882,2.119642 3.77362,2.41555 3.43365,0.733388 7.7197,3.971645 8.71859,6.587228 0.67045,1.755521 0.49964,3.203132 -0.6549,5.550711 -1.40865,2.864266 -2.62568,4.063533 -4.72878,4.659785 -1.02762,0.291339 -2.17759,0.724318 -2.55546,0.962175 -1.79229,1.128114 -3.26094,1.205847 -6.27476,0.33211 -1.57861,-0.457656 -3.21527,-0.832099 -3.63705,-0.832099 -1.23529,0 -3.36491,-1.263237 -5.39659,-3.201132 -1.96398,-1.873315 -2.3935,-2.740603 -2.72832,-5.508931 -0.18942,-1.566167 -0.12463,-1.749394 1.37843,-3.898478 1.00869,-1.442235 2.04953,-2.508488 2.88764,-2.958134 0.72074,-0.386686 1.37112,-0.739088 1.44528,-0.783116 0.0742,-0.04403 -0.0485,-0.692061 -0.27264,-1.440072 -0.22411,-0.748012 -0.39865,-2.562915 -0.38785,-4.033116 0.0175,-2.386055 -0.0778,-2.820215 -0.88741,-4.043178 -1.27704,-1.928991 -2.2407,-2.570586 -4.50319,-2.998181 -3.07865,-0.581842 -5.14025,0.161412 -7.9438,2.863944 -2.43573,2.347939 -3.14363,7.353545 -1.81774,12.853129 1.7031,7.064187 4.03564,12.279765 6.90341,15.436146 0.41655,0.458478 1.40208,1.721034 2.19006,2.805683 0.78797,1.08465 2.20542,2.785575 3.14987,3.779837 0.94444,0.994263 2.53831,2.91705 3.5419,4.272861 2.82121,3.811259 7.17346,9.134583 9.48655,11.603154 1.15219,1.229653 2.4973,2.791225 2.98913,3.470169 0.93324,1.288313 3.87402,4.457805 7.80119,8.407897 1.26874,1.276162 2.99447,3.207729 3.83495,4.292372 0.84049,1.084656 2.31683,2.958419 3.28078,4.163935 3.73394,4.669683 4.92817,6.462987 4.81866,7.235797 -0.085,0.599851 -0.3172,0.763855 -1.09395,0.77265 l -0.98604,0.01118 -0.26489,3.604334 c -0.1457,1.982377 -0.20653,6.235707 -0.1352,9.451817 0.0727,3.27666 -6.5e-4,5.92799 -0.16666,6.03063 -0.44806,0.27691 -1.48287,-0.80114 -1.72334,-1.79534 -0.11702,-0.48382 -0.70977,-1.63556 -1.31721,-2.55941 -0.60743,-0.92385 -1.50827,-2.81733 -2.00188,-4.20775 -0.50624,-1.426 -1.02165,-2.40385 -1.18232,-2.24318 -0.15667,0.15667 -0.48637,1.34254 -0.7327,2.63527 -0.24632,1.29273 -0.81381,3.05805 -1.26111,3.92291 -0.44729,0.86486 -0.91197,1.97922 -1.03264,2.47636 -0.4259,1.75481 -1.63004,0.96666 -2.00603,-1.31302 -0.26136,-1.58477 -0.83026,-2.2057 -0.83026,-0.90621 0,1.77055 -0.70784,3.78045 -1.33137,3.78045 -0.80711,0 -1.87639,-1.58135 -2.49269,-3.68643 -0.86999,-2.97159 -1.03561,-2.84633 -1.56842,1.18628 -0.093,0.70383 -0.49939,1.63129 -0.90312,2.06103 -0.64065,0.68194 -0.79455,0.72083 -1.20982,0.30557 -0.26168,-0.26169 -0.82422,-1.4722 -1.25008,-2.69004 -0.42588,-1.21783 -0.83352,-2.27346 -0.9059,-2.34582 -0.0723,-0.0724 -0.23141,0.6544 -0.35343,1.61504 -0.33218,2.61516 -0.46196,2.897 -1.33403,2.897 -1.01746,0 -2.06403,-1.1374 -2.3246,-2.52632 -0.2841,-1.5144 -0.78853,-1.70503 -0.78853,-0.29802 0,1.29444 -0.91827,3.48444 -1.45777,3.47668 -0.65099,-0.0102 -1.11861,-0.49075 -1.34221,-1.38168 -0.12249,-0.4879 -0.42825,-1.05773 -0.67953,-1.26628 -0.49447,-0.41036 -0.55533,-0.31758 -0.93943,1.43206 -0.27776,1.26532 -1.66252,1.79702 -2.88586,1.10807 -0.86247,-0.48572 -0.9231,-0.46825 -1.64341,0.47372 -0.41135,0.53792 -1.17663,1.49786 -1.70064,2.1332 -1.04414,1.26599 -1.00164,1.37416 0.94279,2.39981 l 1.30478,0.68827 0.49693,-0.81898 c 0.27331,-0.45044 0.69915,-0.81898 0.94632,-0.81898 0.79436,0 2.62737,1.01934 2.8531,1.58663 0.12037,0.30238 0.59108,1.58515 1.04612,2.85056 0.87283,2.4273 1.4154,3.32932 1.4154,2.35307 0,-0.31471 0.31796,-1.55642 0.7066,-2.75936 0.70503,-2.18229 1.80746,-3.70222 2.68529,-3.70222 1.05446,0 2.36596,1.58306 3.73037,4.50283 0.78568,1.68127 1.55184,3.05685 1.70262,3.05685 0.31899,0 0.824,-1.64624 1.36119,-4.43721 0.63519,-3.30021 1.05049,-4.41238 1.72792,-4.62738 0.75549,-0.2398 2.32557,1.11952 2.8269,2.4474 2.6844,7.11028 3.47482,9.12448 3.66769,9.34619 0.12625,0.14514 0.31114,-1.92555 0.41087,-4.60155 0.0997,-2.67598 0.28521,-5.12426 0.4122,-5.44062 0.63497,-1.58185 2.4762,0.3939 3.9382,4.22592 0.61335,1.6076 1.69981,4.08608 2.41437,5.50772 l 1.2992,2.58482 0.48996,-1.76311 c 0.26947,-0.96971 0.90372,-3.50101 1.40944,-5.62513 0.8286,-3.48019 0.99094,-3.862 1.64205,-3.862 0.74278,0 0.70821,-0.0844 2.76015,6.73797 0.16311,0.54233 0.46285,1.62506 0.66611,2.40608 0.41932,1.61129 1.49091,3.5388 1.73826,3.12665 0.36036,-0.60043 1.19169,-4.38775 1.54084,-7.0196 0.46974,-3.54095 1.22914,-5.48473 2.21652,-5.67348 0.51015,-0.0975 0.89327,0.0954 1.23982,0.62429 0.65823,1.0046 2.68424,6.68948 2.95484,8.29117 0.11664,0.69014 0.43044,1.83477 0.69744,2.54363 0.26699,0.70888 0.5709,1.54602 0.67534,1.86035 0.46559,1.40105 0.77255,-0.0991 0.77255,-3.77575 0,-2.19295 0.16336,-4.88352 0.36301,-5.97905 0.19966,-1.09553 0.42433,-2.32467 0.49928,-2.73142 0.3343,-1.81424 2.71998,0.0162 3.4467,2.6444 0.21017,0.76008 0.42571,1.74038 0.47898,2.17846 0.0533,0.43809 0.50502,2.41726 1.00387,4.3982 0.89443,3.55184 0.91229,3.58631 1.28949,2.49031 0.21035,-0.61125 0.63699,-2.6644 0.94806,-4.56253 0.31106,-1.89814 0.7983,-4.26465 1.08271,-5.25891 0.28441,-0.99428 0.53217,-2.17587 0.55056,-2.6258 0.026,-0.63581 0.21053,-0.81886 0.82838,-0.8217 0.6949,-0.004 0.84728,0.22387 1.21066,1.80408 0.22863,0.99428 0.70808,2.88455 1.06542,4.20061 0.35736,1.31609 0.81204,3.68259 1.0104,5.25892 0.65488,5.20399 1.34141,7.61193 2.39161,8.38838 0.51509,0.38082 1.22414,1.17989 1.57569,1.77571 0.3518,0.59627 0.90894,1.08333 1.23919,1.08333 0.33001,0 1.23148,0.64343 2.00328,1.42983 1.12694,1.14826 1.51821,1.87666 1.98693,3.69889 0.51654,2.00815 0.53397,2.51457 0.15155,4.40426 -0.38446,1.89977 -0.95317,3.46538 -1.43226,3.94296 -0.0907,0.0905 -0.64618,1.12574 -1.23444,2.30078 -1.38134,2.75921 -3.14402,6.03445 -3.36169,6.2464 -0.0937,0.0912 -0.67601,1.12654 -1.29414,2.30078 -0.61811,1.17422 -1.30634,2.28287 -1.52939,2.46364 -0.22304,0.18079 -1.16443,1.25266 -2.09195,2.38197 -0.95804,1.16643 -2.28493,2.35491 -3.07215,2.75162 -0.76215,0.38409 -2.21264,1.2045 -3.2233,1.82313 -2.0114,1.2312 -10.30049,4.1171 -15.7469,5.48239 -3.16517,0.79344 -4.13206,0.87576 -11.66819,0.9934 l -8.21705,0.12826 -3.03863,-0.99493 c -2.7171,-0.88966 -3.20403,-1.17607 -4.60155,-2.70674 -2.46739,-2.70248 -4.35669,-5.12325 -4.35669,-5.58223 0,-0.3284 -0.9987,-0.39474 -4.51937,-0.30025 -2.48566,0.0667 -5.07402,-0.008 -5.75194,-0.16746 -1.49808,-0.35097 -1.54701,-0.0973 -0.37479,1.94278 1.37669,2.39603 3.14097,7.70241 3.02485,9.09782 -0.0824,0.99053 -0.29796,1.33463 -1.08882,1.73835 -0.54232,0.27683 -1.09333,0.65125 -1.22448,0.83202 -0.14782,0.20376 -0.94509,-0.0461 -2.09774,-0.65735 -1.74605,-0.92601 -1.95754,-1.17619 -3.47322,-4.10853 -1.52388,-2.94823 -3.54273,-6.04113 -3.78507,-5.79879 -0.0606,0.0606 0.12273,0.66788 0.40747,1.34938 0.78945,1.88942 2.12035,7.40302 2.12035,8.78411 0,1.62183 -0.99399,2.56761 -2.69848,2.56761 -1.06872,0 -1.3139,-0.13708 -1.61654,-0.90387 -0.19621,-0.49712 -0.48943,-1.12574 -0.65159,-1.39689 -0.16218,-0.27116 -0.70102,-1.19345 -1.19746,-2.04952 -0.49642,-0.85608 -0.97654,-1.55635 -1.06693,-1.55614 -0.0904,2e-4 -0.53411,0.76214 -0.98604,1.69318 -1.72115,3.54576 -5.8115,6.51402 -8.97653,6.51402 -1.13594,0 -1.68358,-0.18023 -2.18584,-0.71935 z m 6.13477,-2.63795 c 1.81062,-1.22785 2.23808,-1.73208 3.38559,-3.99364 0.89819,-1.77017 1.31422,-3.01746 1.31618,-3.94584 0.005,-2.49948 0.40205,-4.80863 0.8263,-4.80863 0.44266,0 0.79614,0.99096 0.82067,2.30078 0.022,1.17542 1.97626,6.15728 3.12644,7.97003 1.89657,2.98914 2.47138,1.68487 1.36282,-3.09229 -0.47325,-2.03943 -1.20375,-4.12165 -1.82654,-5.20643 -0.57083,-0.99426 -1.48283,-2.76914 -2.02666,-3.94418 -0.54384,-1.17503 -1.13398,-2.39526 -1.31144,-2.71162 -1.06066,-1.89086 3.62702,1.6383 6.35762,4.78641 1.61433,1.86114 2.35582,3.03288 4.76146,7.52438 0.86865,1.6218 1.95798,2.18358 3.36699,1.73639 0.57413,-0.18222 0.6484,-0.38509 0.4602,-1.25704 -0.50534,-2.34133 -2.25403,-6.56978 -3.54975,-8.58362 -1.65189,-2.5674 -5.21466,-6.30225 -7.93376,-8.31698 -1.08465,-0.80367 -2.04605,-1.55723 -2.13643,-1.6746 -0.4344,-0.56404 -3.35958,-1.88775 -5.89263,-2.66653 l -2.81743,-0.86624 -0.16985,-1.29843 c -0.0935,-0.71416 -0.076,-1.85516 0.0389,-2.5356 0.73575,-4.36118 -3.91925,-12.07106 -8.65945,-14.34228 -1.86889,-0.89546 -2.09469,-1.19167 -1.4216,-1.86478 0.46363,-0.46362 0.66831,-0.42701 2.16393,0.387 2.62808,1.43038 6.33371,5.20397 7.55129,7.68979 1.81237,3.7001 2.04229,4.57747 2.00333,7.64499 l -0.0365,2.87912 1.07275,0.47498 c 0.59003,0.26125 1.8942,0.69924 2.89818,0.97332 2.31559,0.63217 6.77053,3.78534 10.34509,7.32215 l 2.63873,2.61088 3.03059,0.4344 c 2.15795,0.30931 4.42665,0.36408 7.87907,0.19024 2.66667,-0.13428 6.14182,-0.30404 7.72257,-0.37725 1.58074,-0.0732 3.46101,-0.33533 4.17837,-0.58247 1.1651,-0.40141 1.35822,-0.38979 1.80964,0.10906 1.30503,1.44205 0.26716,1.8855 -4.58923,1.96083 -3.34089,0.0518 -5.09457,0.2411 -5.09457,0.54985 0,0.26903 3.14189,4.23765 4.11454,5.1972 0.56631,0.55868 1.9799,1.38556 3.14127,1.83751 2.07151,0.80608 2.27079,0.82066 10.49299,0.76684 7.48769,-0.0489 8.66176,-0.13134 11.01084,-0.77223 1.4462,-0.39456 3.29503,-0.85986 4.10851,-1.03397 0.8135,-0.17412 2.58837,-0.74562 3.94419,-1.27 1.35581,-0.52439 3.29011,-1.17743 4.29845,-1.45121 1.00834,-0.27378 2.38988,-0.87545 3.07007,-1.33703 0.6802,-0.4616 2.14776,-1.29679 3.26123,-1.85597 1.11346,-0.55917 2.15373,-1.23973 2.31171,-1.51234 0.15797,-0.2726 1.0458,-1.40046 1.97293,-2.50634 1.60444,-1.91373 3.49178,-4.5952 3.49178,-4.96099 0,-0.0938 0.76278,-1.5391 1.69507,-3.21169 2.70021,-4.84439 4.45535,-8.53169 4.68817,-9.84929 0.27735,-1.56951 -0.57239,-4.5442 -1.67102,-5.84985 -0.45457,-0.54023 -0.94978,-0.98224 -1.10046,-0.98224 -0.15069,0 -0.45262,0.55466 -0.67098,1.23256 -0.52989,1.64514 -0.73114,1.86235 -3.00504,3.24368 -2.40322,1.45987 -4.16851,1.66804 -7.89658,0.93115 -1.49672,-0.29583 -3.83062,-0.74186 -5.18642,-0.99116 -7.02457,-1.29164 -10.94253,-2.2838 -15.61238,-3.95356 -7.67033,-2.74261 -8.20368,-2.94684 -9.36743,-3.58689 -1.80769,-0.99422 -3.36629,-1.67573 -4.4372,-1.94017 -1.14489,-0.28272 -8.14074,-4.09942 -10.45352,-5.70307 -0.86849,-0.60221 -1.94474,-1.23395 -2.39164,-1.40386 -0.44691,-0.16991 -1.70652,-0.90273 -2.79916,-1.62848 -1.09265,-0.72574 -2.06545,-1.31954 -2.16178,-1.31954 -0.0963,0 -1.05724,-0.73708 -2.13537,-1.63794 -1.07813,-0.90086 -2.357,-1.87306 -2.84192,-2.16043 -0.48493,-0.28736 -1.27408,-1.06635 -1.75366,-1.73106 -0.57853,-0.80183 -1.72353,-1.64354 -3.4023,-2.50104 -1.39167,-0.71086 -2.61404,-1.51068 -2.7164,-1.77737 -0.10807,-0.28177 0.1677,-0.78918 0.65848,-1.21132 0.46449,-0.39954 1.44163,-1.59647 2.17141,-2.65984 1.70231,-2.48042 7.96753,-8.62471 9.99113,-9.79827 1.74729,-1.01332 5.5147,-1.49806 11.25922,-1.44873 2.48315,0.0214 3.47119,-0.11826 4.87746,-0.689 1.87899,-0.76263 2.27286,-1.19698 5.11748,-5.643482 1.92463,-3.008457 2.73934,-3.80902 4.37506,-4.299092 0.68434,-0.205035 1.24425,-0.429636 1.24425,-0.49914 0,-0.289373 -2.8789,-4.034095 -4.65773,-6.058532 -1.05375,-1.199229 -1.9159,-2.314395 -1.9159,-2.478137 0,-0.163755 -1.35643,-1.696978 -3.01427,-3.407175 -5.50342,-5.677157 -7.06314,-7.37016 -8.0124,-8.697032 -0.5173,-0.723095 -1.83467,-2.27612 -2.92748,-3.45115 -2.67621,-2.877611 -5.89579,-6.778671 -7.95641,-9.64053 -2.06789,-2.871963 -3.30458,-4.43153 -5.38713,-6.793552 -3.95757,-4.488711 -6.56585,-8.16819 -8.48088,-11.963942 -1.10359,-2.187414 -2.06913,-4.34688 -2.14563,-4.798817 -0.0766,-0.451938 -0.37315,-1.487286 -0.65923,-2.300772 -0.28607,-0.813486 -0.52441,-1.77488 -0.52967,-2.13643 -0.005,-0.36155 -0.22374,-1.272014 -0.48551,-2.023255 -0.26477,-0.759827 -0.51366,-2.874514 -0.56092,-4.765883 -0.0785,-3.141299 -0.0132,-3.557042 0.85872,-5.464124 0.71513,-1.564164 1.46914,-2.522574 3.11299,-3.956805 1.1931,-1.040968 2.58298,-2.071872 3.08861,-2.290896 1.15067,-0.498428 3.00557,-0.506033 5.79172,-0.02375 2.309,0.39969 3.1944,1.067559 5.34237,4.029866 0.85998,1.185995 0.9295,1.50806 0.9295,4.305984 0,1.663262 0.16723,3.503855 0.37163,4.090205 0.33742,0.967885 0.46611,1.04786 1.3969,0.868161 0.56391,-0.108859 1.64808,-0.289304 2.40932,-0.400981 l 1.38406,-0.203047 -0.43322,-1.036811 c -0.23827,-0.570247 -0.53592,-2.733287 -0.66148,-4.806755 -0.40056,-6.615307 -0.76948,-7.980418 -2.85097,-10.5496232 C 139.06552,5.873424 138.2334,5.2325217 136.30466,4.5842614 L 134.48752,3.9735113 130.3312,5.00646 c -4.41868,1.0981525 -5.52139,1.6914787 -7.93607,4.2701083 -0.68525,0.7317717 -1.68349,2.0878197 -2.21833,3.0134427 -1.05201,1.82067 -2.96357,7.356542 -3.58753,10.389543 -0.63429,3.083188 -0.59464,8.624094 0.0807,11.263898 1.23317,4.82091 1.35916,5.685313 1.33117,9.13306 -0.0274,3.375892 -0.078,3.624551 -1.05642,5.198576 -0.56519,0.909203 -1.02762,1.755597 -1.02762,1.880877 0,0.3069 -1.35792,1.159445 -1.97209,1.238144 -0.27116,0.03474 -1.21912,0.153419 -2.10658,0.263714 -1.46386,0.181936 -2.34353,0.51772 -6.62291,2.528058 -1.46077,0.686224 -5.554877,3.362406 -6.330509,4.138027 -0.267887,0.267906 -1.241317,0.833047 -2.163134,1.255864 -2.449961,1.123736 -6.569162,4.079945 -7.728652,5.54657 -0.553464,0.700077 -2.061134,2.062042 -3.350378,3.026583 -2.397701,1.793837 -7.322286,6.25471 -11.768985,10.660799 -3.399949,3.368875 -14.827876,15.307712 -15.640379,16.339608 -0.36155,0.459178 -1.89365,2.069185 -3.404668,3.577811 -3.085633,3.080737 -5.684048,4.617777 -7.191341,4.253867 -3.232171,-0.78033 -3.338468,-0.84119 -4.498134,-2.57538 -0.631103,-0.943744 -1.511022,-2.102673 -1.95538,-2.575379 -0.741785,-0.789121 -1.436164,-1.890758 -3.878481,-6.153216 -0.934735,-1.63135 -9.454228,-11.253196 -10.668278,-12.048677 -0.396797,-0.259994 -2.620184,-2.04788 -4.940858,-3.973075 -3.904917,-3.239481 -4.692778,-3.730274 -10.57054,-6.584877 -3.4931262,-1.696482 -6.5621907,-3.08451 -6.8201437,-3.08451 -0.9074667,0 -0.351909,1.123601 0.8784524,1.776657 6.4367033,3.416442 10.2363943,6.022419 15.0331583,10.310319 0.662115,0.591876 2.089108,1.775129 3.171094,2.629457 6.369527,5.029307 11.199763,11.929284 14.777649,21.109871 0.669298,1.71736 1.66354,4.08255 2.209426,5.25598 0.545888,1.17343 1.215945,2.8004 1.489017,3.6155 0.273072,0.8151 0.720457,1.73487 0.994196,2.04394 0.310837,0.35097 0.42189,0.864 0.295773,1.36649 -0.414206,1.65033 -2.236223,0.12978 -3.970064,-3.3132 -0.435787,-0.86535 -1.098008,-1.89997 -1.471604,-2.29916 -0.373594,-0.39919 -0.679266,-0.86177 -0.679266,-1.02797 0,-0.1662 -0.218087,-0.48318 -0.484638,-0.7044 -0.266551,-0.22121 -1.239287,-1.6561 -2.161634,-3.18862 -1.906207,-3.16725 -8.385881,-9.850355 -11.487035,-11.847662 -1.786871,-1.150832 -5.649422,-4.296597 -5.861488,-4.773736 -0.06026,-0.135581 -0.334255,-0.246515 -0.608881,-0.246515 -0.274626,0 -1.844621,-0.450717 -3.488877,-1.001598 -1.644256,-0.55088 -3.3561102,-0.957621 -3.8041174,-0.903869 l -0.8145605,0.09777 0.9618407,0.478047 c 2.7279612,1.355816 5.3917622,3.059627 6.7137692,4.294223 0.813488,0.759706 1.996741,1.762582 2.629454,2.228617 0.632712,0.466034 2.037826,1.759302 3.122474,2.873933 1.08465,1.114619 2.931736,2.739186 4.104639,3.610135 1.172899,0.87095 2.578013,2.108065 3.122473,2.749135 0.544459,0.64107 1.890824,2.05764 2.991921,3.1479 1.101096,1.09027 2.349671,2.57395 2.774611,3.29704 0.424938,0.7231 1.278406,1.94168 1.896594,2.70794 1.111308,1.37752 1.226232,2.38662 0.271803,2.38662 -0.510324,0 -1.373444,-0.97814 -3.735341,-4.2331 -2.151904,-2.96559 -6.215756,-6.31222 -9.865042,-8.12398 -1.671934,-0.830067 -3.584947,-1.879119 -4.251142,-2.331203 -0.666194,-0.452095 -1.573046,-0.959534 -2.015228,-1.12765 -1.271191,-0.483314 -4.901223,-0.701579 -5.552495,-0.33387 -0.512106,0.289136 -0.417094,0.40186 0.725442,0.860663 0.7231,0.290367 1.61054,0.665132 1.972089,0.832824 0.361551,0.167681 1.470851,0.61497 2.465112,0.993971 2.621369,0.999225 4.389912,2.089075 7.724018,4.759865 2.74657,2.20016 5.271771,4.65664 6.420807,6.24607 0.264828,0.36633 1.265391,1.23481 2.223474,1.92994 3.414664,2.47752 1.212257,3.35848 -3.069531,1.22782 -3.131047,-1.55803 -3.07542,-1.54864 -7.205423,-1.21932 -3.536569,0.28198 -6.91822,1.24959 -10.201865,2.9191 l -1.972088,1.00268 1.150385,0.29049 c 0.632712,0.15977 2.883266,0.28461 5.001233,0.27743 2.897122,-0.0102 4.362383,0.14375 5.916267,0.6201 1.135982,0.34825 3.148266,0.85689 4.471744,1.13034 1.323481,0.27344 3.210789,0.87774 4.19402,1.34288 0.983235,0.46515 3.080381,1.0735 4.660331,1.3519 3.418969,0.60246 4.680382,1.04132 4.680382,1.62833 0,0.7449 -0.679911,0.91031 -3.519748,0.85626 -2.320216,-0.0442 -3.071235,0.0845 -4.792547,0.8211 -1.796937,0.76898 -2.532777,0.88256 -6.149693,0.94931 -4.119991,0.0761 -7.797372,0.70406 -7.639824,1.30471 0.143764,0.54812 2.964515,1.08588 4.937164,0.94127 1.034525,-0.0759 3.086951,-0.19828 4.560947,-0.2721 1.578752,-0.0791 3.102941,-0.35295 3.709292,-0.66651 0.566115,-0.29275 2.095379,-0.61276 3.398364,-0.71113 1.302983,-0.0984 2.830786,-0.3718 3.395123,-0.6076 1.172791,-0.49002 1.890641,-0.20652 1.720046,0.67931 -0.07929,0.41176 -0.855818,0.88003 -2.41528,1.45646 -1.264126,0.46727 -2.963987,1.16758 -3.777475,1.55626 -2.298667,1.09827 -9.922641,4.02565 -10.484284,4.02565 -1.132808,0 0.497929,0.98136 1.964845,1.18242 1.176331,0.16124 1.951701,0.0194 3.686219,-0.67458 1.208103,-0.48331 3.122591,-1.10332 4.254418,-1.37778 1.131829,-0.27447 2.855073,-0.86448 3.829433,-1.31113 0.97436,-0.44666 1.983662,-0.73072 2.242894,-0.63124 0.95097,0.36493 0.200706,1.31355 -2.12524,2.68715 -3.531742,2.08568 -6.700659,4.42568 -6.560967,4.84476 0.173558,0.52068 3.091573,0.95385 4.757239,0.70621 0.884057,-0.13145 2.292557,-0.80501 3.820933,-1.82726 4.283885,-2.86523 5.72093,-4.82173 6.589024,-8.97077 0.577834,-2.76178 1.464549,-3.79883 2.286901,-2.67465 0.210711,0.28804 1.12883,0.58105 2.172664,0.69337 2.095426,0.22551 5.942243,1.97793 7.395335,3.36896 2.570371,2.46059 13.801682,14.08214 16.434077,17.00509 1.626974,1.80655 3.413996,3.64643 3.971161,4.08862 0.557164,0.44219 1.686582,1.3678 2.509804,2.05693 0.823221,0.68913 3.10364,2.07586 5.067579,3.08162 12.615658,6.46062 14.870278,7.38436 17.293278,7.08519 0.67789,-0.0837 1.23254,-0.21539 1.23254,-0.29267 0,-0.0773 -0.88301,-1.9469 -1.96227,-4.15473 -2.504916,-5.12437 -5.69426,-10.56172 -7.139581,-12.17194 -0.619752,-0.69047 -1.071712,-1.42076 -1.004344,-1.62287 0.722748,-2.16824 5.345388,4.6537 11.492115,16.95967 0.7516,1.50475 0.87352,4.47398 0.29437,7.16989 -0.5688,2.64785 -1.98891,4.60036 -4.58172,6.29943 -2.868185,1.87952 -2.930576,1.91291 -3.773144,2.01922 -2.927225,0.36933 -3.509845,0.58309 -9.759499,3.58073 -3.017825,1.44749 -3.327347,1.6695 -2.465118,1.76809 0.542321,0.062 2.021395,-0.12038 3.286824,-0.40532 1.265416,-0.28492 3.212424,-0.72431 4.326683,-0.9764 1.114259,-0.25209 2.445416,-0.67261 2.958134,-0.93448 0.512718,-0.26187 2.485226,-0.96677 4.38337,-1.56646 1.89814,-0.59969 3.99963,-1.42913 4.66999,-1.84319 1.06776,-0.65956 3.00044,-2.97225 4.06356,-4.86254 0.62514,-1.11158 1.14132,-0.99243 0.9191,0.21215 -0.32584,1.76648 -1.28272,3.71814 -2.29817,4.68744 -1.07294,1.02415 -7.12652,4.13121 -8.048997,4.13121 -0.64345,0 -2.555849,0.67455 -4.728725,1.66793 -0.723095,0.33058 -2.240256,0.74807 -3.371471,0.92776 -3.250438,0.51634 -3.390664,0.86778 -0.805607,2.01896 1.060295,0.47217 1.909864,0.63039 2.698005,0.50243 0.632721,-0.10273 2.28084,-0.31136 3.662509,-0.46364 2.576285,-0.28397 2.621888,-0.30433 7.379306,-3.29279 2.18842,-1.37468 2.15196,-1.34362 6.00993,-5.12417 1.46667,-1.43721 2.75114,-2.87929 2.85439,-3.20463 0.2329,-0.7338 1.1295,-0.78409 1.1295,-0.0634 0,1.49962 -1.29611,5.5812 -2.65038,8.34623 -0.84112,1.71737 -1.73428,3.60318 -1.98483,4.1907 -0.25052,0.58751 -0.5673,1.06822 -0.70393,1.06822 -0.13665,0 -0.24845,0.31516 -0.24845,0.70036 0,0.62407 0.1325,0.67887 1.21594,0.50305 0.66878,-0.10858 2.14849,-0.82969 3.28822,-1.60258 z m 10.94386,-95.936341 c -0.63271,-0.130487 -2.18477,-0.40889 -3.44902,-0.618671 -4.64074,-0.770016 -7.94819,-3.222201 -10.58884,-7.850704 -2.25943,-3.960304 -2.8445,-5.667283 -2.83166,-8.261596 0.008,-1.872024 0.1589,-2.37811 1.20905,-4.089187 1.17242,-1.910274 1.33454,-2.383999 1.21572,-3.552395 -0.0809,-0.795643 1.64067,-3.102087 3.52554,-4.723275 2.47401,-2.127906 3.95704,-2.730229 7.77203,-3.156548 3.54067,-0.39566 5.29244,-0.173842 10.07433,1.275653 1.45087,0.439785 5.23407,3.401124 5.23407,4.097014 0,0.174066 0.57319,1.086655 1.27375,2.027966 1.96099,2.634886 2.76534,5.106737 2.803,8.613789 0.0356,3.321707 -0.85497,6.373519 -2.40916,8.25501 -0.46525,0.563217 -1.35241,1.675637 -1.97148,2.47205 -1.55139,1.995755 -3.73866,3.568582 -6.2104,4.465768 -2.92409,1.0614 -4.3176,1.319306 -5.64693,1.045126 z m 3.31675,-2.05557 c 5.90439,-1.808843 10.12364,-6.457185 11.157,-12.291626 0.66118,-3.733106 -0.28708,-7.05034 -3.08988,-10.809075 -2.53506,-3.39972 -3.30939,-3.949545 -6.8621,-4.872607 -1.75632,-0.456332 -3.825,-0.848141 -4.59708,-0.870689 -1.52276,-0.04448 -5.02567,0.506446 -6.75965,1.063103 -1.31069,0.420754 -4.8271,3.744945 -5.17114,4.888447 -0.13595,0.451946 -0.88887,2.060613 -1.67312,3.574829 -1.72649,3.333471 -1.96141,4.432337 -1.42974,6.6876 0.87388,3.70692 3.16677,7.411193 6.00037,9.69391 2.17043,1.748482 4.20052,2.578772 7.13651,2.918779 0.99425,0.115158 1.86937,0.26603 1.94469,0.335311 0.28903,0.265844 1.95575,0.107332 3.34414,-0.317982 z m -9.26766,-5.923944 c -2.43009,-0.523018 -3.3555,-1.176087 -4.23193,-2.986546 -1.6029,-3.311172 -1.51532,-9.43327 0.19346,-13.522955 0.73047,-1.748246 5.55727,-4.238644 7.52398,-3.882015 0.43151,0.07827 1.82018,0.194861 3.08596,0.259135 1.88203,0.09553 2.48199,0.268825 3.29254,0.950863 0.54514,0.458706 1.69956,1.0958 2.56539,1.415768 2.02926,0.749929 2.2553,0.937311 3.52175,2.919438 1.24009,1.940871 2.16098,4.469059 2.16098,5.932716 0,1.124656 -1.34722,3.397199 -2.85328,4.813028 -1.88517,1.77226 -5.6486,3.434007 -9.08288,4.010577 -3.69613,0.620535 -3.71,0.620734 -6.17597,0.08994 z m 3.65015,-1.501559 c 0.63271,-0.168364 1.92252,-0.383722 2.86624,-0.478556 3.26544,-0.328156 7.76003,-2.923872 9.13992,-5.278479 0.71478,-1.219677 0.84042,-1.74016 0.65954,-2.732328 -0.49121,-2.694601 -2.91878,-6.320214 -4.23177,-6.320214 -0.21451,0 -1.15767,-0.516967 -2.09593,-1.148831 -1.64346,-1.10678 -1.82978,-1.151887 -5.09017,-1.232547 -3.00468,-0.07429 -3.55016,0.0025 -4.86334,0.686237 -2.35646,1.226721 -2.81376,1.827727 -3.4516,4.536254 -0.61564,2.614201 -0.54555,6.219591 0.16973,8.73133 0.54223,1.904039 2.00941,3.158996 3.86464,3.30562 0.85452,0.06758 1.62762,0.148637 1.71801,0.180215 0.0904,0.03155 0.68201,-0.08038 1.31473,-0.248701 z m -0.98604,-2.230206 c -1.62672,-0.61805 -4.27287,-3.864015 -4.27287,-5.241422 0,-0.706959 1.25544,-2.886506 2.90291,-5.03968 0.78666,-1.028133 3.35208,-1.973357 5.35004,-1.971219 1.21413,0.0012 1.78076,0.213768 2.85337,1.069847 2.27416,1.81508 2.82374,2.754379 2.97176,5.078935 0.11553,1.81467 0.0237,2.249697 -0.70987,3.358043 -0.59031,0.891992 -1.26632,1.419109 -2.25737,1.760159 -3.15652,1.086246 -5.63311,1.44311 -6.83797,0.985337 z m 4.6884,-2.024712 c 0.86126,-0.191084 1.85364,-0.501401 2.20528,-0.689604 1.01694,-0.544235 1.74685,-2.415614 1.50297,-3.85332 -0.22444,-1.323032 -1.78091,-3.350713 -3.09318,-4.029633 -0.83767,-0.433388 -3.15137,-0.227707 -4.53616,0.40325 -0.78673,0.358467 -3.3983,3.925011 -3.3951,4.63659 0.004,0.727853 1.5253,2.876356 2.48044,3.501449 1.02042,0.667803 1.94004,0.673741 4.83575,0.0313 z m 73.39334,69.223832 c 1.62996,-0.82596 2.44523,-1.89115 2.44523,-3.19481 0,-0.34406 -0.18843,-0.74385 -0.41874,-0.88841 -1.02755,-0.64498 -2.67246,-4.91554 -3.01303,-7.82252 -0.0848,-0.7231 -0.30862,-1.83142 -0.49755,-2.46294 -0.18895,-0.63152 -0.34354,-1.71303 -0.34354,-2.40335 0,-1.12259 -0.58341,-3.51063 -1.3004,-5.32284 -0.21773,-0.55032 -0.32399,-0.42406 -0.65257,0.77546 -0.21586,0.78806 -0.60797,2.78479 -0.87136,4.4372 -0.68212,4.27945 -0.6633,4.1806 -1.08773,5.716 -0.57084,2.06509 -1.45482,1.9147 -2.48884,-0.42339 -0.44276,-1.00116 -0.89982,-2.3693 -1.01569,-3.0403 -0.203,-1.17571 -0.62529,-2.84789 -1.66797,-6.60492 -0.80824,-2.91234 -1.20328,-1.68828 -1.44501,4.47752 -0.20685,5.27618 -0.50363,6.987 -1.29709,7.47738 -0.55091,0.34049 -1.21732,-0.37708 -1.77073,-1.90665 -0.27392,-0.7571 -0.74554,-2.04211 -1.04805,-2.8556 -0.3025,-0.81347 -0.73943,-2.2186 -0.97092,-3.12247 -0.47144,-1.84064 -1.67847,-5.23396 -2.22014,-6.24145 -0.33453,-0.62221 -0.3727,-0.6032 -0.65237,0.32518 -0.16336,0.54232 -0.50784,2.3172 -0.76548,3.94418 -0.53583,3.3838 -1.76447,8.75644 -2.08508,9.11787 -0.3578,0.40332 -1.57811,-0.66115 -1.808,-1.57712 -0.11814,-0.47079 -0.57557,-1.40107 -1.01646,-2.06731 -0.4409,-0.66623 -0.8996,-1.72659 -1.01936,-2.35635 -0.11976,-0.62975 -0.33084,-1.29291 -0.46909,-1.47369 -0.13826,-0.18077 -0.49691,-1.17641 -0.79701,-2.21252 -0.30011,-1.03611 -0.66808,-1.95952 -0.81771,-2.05199 -0.31824,-0.19669 -0.67169,1.05457 -0.85915,3.04157 -0.0731,0.77357 -0.56912,2.69636 -1.10252,4.27286 -0.84429,2.49541 -1.06804,2.86635 -1.72894,2.86635 -0.65122,0 -0.87807,-0.35043 -1.59576,-2.46511 -0.46012,-1.35581 -1.5145,-3.87023 -2.34307,-5.58759 -0.82856,-1.71737 -1.61265,-3.61375 -1.74244,-4.2142 -0.12978,-0.60044 -0.3124,-1.01527 -0.40583,-0.92183 -0.0935,0.0935 -0.26424,2.58144 -0.37957,5.52893 -0.19954,5.09963 -0.24281,5.36377 -0.89374,5.45678 -0.4815,0.0688 -0.94191,-0.27437 -1.55504,-1.15911 -0.94914,-1.3696 -3.24994,-6.50695 -4.08798,-9.12777 -0.28901,-0.90387 -0.67652,-1.84129 -0.8611,-2.08316 -0.43094,-0.56463 -0.72701,0.16381 -1.53795,3.78404 -0.67006,2.99131 -1.99121,5.45778 -2.76449,5.16104 -0.26598,-0.10216 -1.31773,-1.83566 -2.33724,-3.85242 -2.0759,-4.10656 -2.37977,-4.56576 -2.83502,-4.28439 -0.535,0.33063 -1.54471,2.99402 -1.76102,4.6451 -0.19611,1.49685 -0.16091,1.58663 0.86927,2.21738 0.59051,0.36156 1.60187,0.98663 2.24748,1.38908 0.6456,0.40244 1.71844,1.02893 2.38408,1.3922 0.66564,0.36326 1.29666,0.80029 1.40226,0.97115 0.27764,0.44924 9.85914,5.615 10.41473,5.615 0.25698,0 1.57237,0.53268 2.92308,1.18375 1.35072,0.65106 4.45258,1.89312 6.89305,2.76011 2.44046,0.867 5.21416,1.88535 6.16377,2.26301 0.94962,0.37764 2.50264,0.81714 3.45116,0.97665 1.65243,0.27789 6.75582,1.24508 10.92765,2.07098 3.99652,0.79121 6.92382,1.14039 7.72706,0.92174 0.4536,-0.12348 1.57048,-0.60242 2.48196,-1.0643 z m -62.82328,-23.6561 c -0.31672,-1.0015 -1.13501,-2.21861 -1.49164,-2.21861 -0.52846,0 -0.30246,1.21138 0.39032,2.09211 0.83933,1.06701 1.41982,1.13369 1.10132,0.1265 z m -0.79649,-10.45974 c 0,-0.8423 -1.08787,-0.74676 -1.25288,0.11006 -0.076,0.39442 0.10103,0.57142 0.57143,0.57142 0.47037,0 0.68145,-0.21109 0.68145,-0.68146 z m 4.25392,-4.00226 c 0.0256,-0.77886 -0.71344,-0.72816 -1.22047,0.0837 -0.33797,0.54116 -0.31395,0.87892 0.13433,1.88992 l 0.54586,1.231 0.26067,-1.31473 c 0.14337,-0.7231 0.26919,-1.57356 0.27961,-1.88992 z m 9.04523,0.93428 c 0.11504,-1.06792 0.3617,-2.22686 0.54826,-2.57543 0.45691,-0.85377 0.1649,-1.06316 -1.54917,-1.11091 -1.44383,-0.0402 -1.70387,0.11789 -1.17461,0.71423 0.15242,0.17175 0.53436,1.19969 0.84875,2.28434 0.81382,2.80769 0.84767,2.90202 0.9897,2.75867 0.0704,-0.071 0.22209,-1.00298 0.33707,-2.0709 z m 5.21493,-0.58373 c 0.1934,-2.76776 0.0768,-3.00589 -1.63034,-3.32863 -1.2989,-0.24557 -1.54583,-0.007 -0.78383,0.75399 0.3284,0.3284 0.84061,1.46235 1.13823,2.51988 1.00418,3.5681 1.03035,3.56922 1.27594,0.0548 z m -9.82051,-2.09563 c 0.23603,-0.99747 0.22832,-1.00443 -0.96145,-0.86553 -0.96145,0.1123 -1.15292,0.24652 -0.96512,0.67687 0.12884,0.29526 0.47082,1.40878 0.75997,2.47446 l 0.52573,1.93762 0.20146,-1.60894 c 0.1108,-0.88492 0.30854,-2.06143 0.43941,-2.61448 z m 14.73319,0.43036 c 0.31194,-1.49139 0.66759,-3.07989 0.79036,-3.52998 l 0.22322,-0.81836 -1.07022,0.90053 c -0.58861,0.49529 -1.33884,0.90053 -1.66718,0.90053 -0.32834,0 -0.68037,0.21729 -0.78229,0.48289 -0.25769,0.67151 1.0749,4.77601 1.55061,4.77601 0.22146,0 0.63205,-1.16521 0.9555,-2.71162 z m 7.43669,-7.871267 0.0326,-4.502276 -0.98605,0.343733 c -0.54232,0.18906 -0.9864,0.440208 -0.98681,0.558099 -3.3e-4,0.11789 -0.44434,0.732039 -0.98646,1.364747 -0.54214,0.632709 -1.26199,1.735737 -1.59968,2.45118 l -0.614,1.300784 0.91525,0.91525 c 0.54801,0.54802 1.25812,1.94481 1.76982,3.4813 0.47,1.41133 1.11115,2.92853 1.42473,3.37155 0.56402,0.7968 0.57249,0.77531 0.78406,-1.98829 0.11764,-1.53659 0.22858,-4.81983 0.24651,-7.296077 z M 71.90004,78.094154 c 1.704602,-1.234807 1.31682,-1.503844 -1.138708,-0.790003 -0.980473,0.285037 -2.413174,0.518246 -3.183771,0.518246 -1.530571,0 -1.489318,0.281137 0.128956,0.878863 1.712509,0.632547 2.674491,0.493276 4.193523,-0.607106 z m 1.6395,-3.453125 c 0.981877,-0.303559 1.980921,-0.516445 2.220092,-0.473103 0.684194,0.123978 5.633414,-4.214693 5.642905,-4.946808 0.0012,-0.120995 -1.513198,-0.194898 -3.36614,-0.164338 -2.610955,0.0431 -3.96062,-0.109691 -5.998439,-0.678933 -3.220188,-0.899496 -3.370061,-0.905583 -2.64777,-0.107456 0.317126,0.350418 1.267492,0.785296 2.111927,0.966393 0.844435,0.181096 1.976029,0.559067 2.514657,0.839917 0.538627,0.280863 1.300015,0.511563 1.691971,0.512681 1.784714,0.005 2.406566,1.187664 1.012927,1.926312 -0.841082,0.445786 -6.362604,1.423644 -8.210869,1.454141 -0.952767,0.01565 -1.149105,0.113418 -0.880006,0.437599 0.722022,0.86998 3.495595,0.979635 5.908745,0.233595 z m 75.08121,-33.171841 c 0.72311,-0.273934 2.13245,-0.787634 3.13188,-1.141556 2.23291,-0.790728 3.46631,-1.895098 4.30705,-3.85645 1.03569,-2.41618 1.14558,-4.113121 0.33967,-5.244935 -1.06739,-1.499009 -4.05937,-3.642502 -5.83714,-4.18181 -2.01615,-0.611626 -6.87923,-0.641635 -8.7501,-0.054 -0.77462,0.243304 -2.25642,0.693814 -3.2929,1.001135 -1.6012,0.474764 -2.04022,0.785067 -2.92019,2.064068 -2.12025,3.081679 -1.8181,5.564129 0.98448,8.088689 1.65496,1.490778 3.27244,2.235518 6.77835,3.120992 3.22498,0.814516 3.6078,0.829356 5.2589,0.203862 z"
       id="path21"
       inkscape:connector-curvature="0" />
  </g>
</svg>
