<?xml version="1.0" encoding="UTF-8" standalone="no"?>
<!-- Created with Inkscape (http://www.inkscape.org/) -->

<svg
   xmlns:dc="http://purl.org/dc/elements/1.1/"
   xmlns:cc="http://creativecommons.org/ns#"
   xmlns:rdf="http://www.w3.org/1999/02/22-rdf-syntax-ns#"
   xmlns:svg="http://www.w3.org/2000/svg"
   xmlns="http://www.w3.org/2000/svg"
   xmlns:sodipodi="http://sodipodi.sourceforge.net/DTD/sodipodi-0.dtd"
   xmlns:inkscape="http://www.inkscape.org/namespaces/inkscape"
   width="1193.0675"
   height="800"
   id="svg5093"
   version="1.1"
   inkscape:version="0.48.4 r9939"
   sodipodi:docname="Новый документ 44">
  <defs
     id="defs5095" />
  <sodipodi:namedview
     id="base"
     pagecolor="#ffffff"
     bordercolor="#666666"
     borderopacity="1.0"
     inkscape:pageopacity="0.0"
     inkscape:pageshadow="2"
     inkscape:zoom="0.35"
     inkscape:cx="-361.73076"
     inkscape:cy="155.9375"
     inkscape:document-units="px"
     inkscape:current-layer="layer1"
     showgrid="false"
     fit-margin-top="0"
     fit-margin-left="0"
     fit-margin-right="0"
     fit-margin-bottom="0"
     inkscape:window-width="1920"
     inkscape:window-height="1018"
     inkscape:window-x="-8"
     inkscape:window-y="-8"
     inkscape:window-maximized="1" />
  <metadata
     id="metadata5098">
    <rdf:RDF>
      <cc:Work
         rdf:about="">
        <dc:format>image/svg+xml</dc:format>
        <dc:type
           rdf:resource="http://purl.org/dc/dcmitype/StillImage" />
        <dc:title></dc:title>
      </cc:Work>
    </rdf:RDF>
  </metadata>
  <g
     inkscape:label="Layer 1"
     inkscape:groupmode="layer"
     id="layer1"
     transform="translate(-142.44505,111.70032)">
    <path
       inkscape:connector-curvature="0"
       style="fill:#000000;fill-opacity:1;fill-rule:nonzero;stroke:none"
       d="m 756.80342,-111.70032 c -24.75856,24.872119 -44.63758,58.892415 -57.95591,92.344689 -15.93913,33.426469 -26.97638,69.248642 -43.0461,102.36473 C 621.23913,93.687223 583.77348,85.643103 547.98578,88.21952 500.71874,91.194019 454.77503,77.903874 408.42666,71.305692 381.15661,45.255229 387.0148,-3.3642751 364.73929,-35.067053 348.02926,-60.345566 322.66915,-106.46515 288.3465,-96.63018 c -6.13009,36.6405 -9.5646,74.8416 -14.18837,112.224449 -6.66955,47.586578 -16.6919,94.911791 -14.26854,143.246491 -7.63721,48.46362 -30.39451,95.78089 -19.71944,145.97195 7.53184,41.41482 14.60655,82.95161 12.50501,125.21042 1.10142,31.4371 0.0277,62.61041 -5.53106,93.38677 -4.547,41.20505 -7.31337,82.4881 -3.60722,123.92786 1.48303,14.11647 -0.71795,27.47457 -2.80561,40.96192 l 628.61724,0 c 0.64077,-11.89946 -1.68286,-24.73658 -0.24035,-36.23246 1.34253,-67.64867 4.29597,-135.23878 6.17234,-202.88578 5.96631,-66.45011 -5.75987,-132.39373 -17.39479,-197.51503 1.61218,-66.958 -33.93708,-125.3741 -55.47094,-186.533063 -12.50647,-48.91452 -1.8836,-101.972854 -21.96393,-149.098196 -7.06932,-9.12068 -9.57065,-27.119861 -23.64729,-27.735471 z"
       id="path5014" />
    <path
       inkscape:connector-curvature="0"
       style="fill:#e1e1e1;fill-opacity:1;fill-rule:nonzero;stroke:none"
       d="m 758.00582,-93.022965 c -4.69062,8.28455 -10.03143,16.141082 -15.07014,24.208417 -21.20057,27.955943 -31.87413,61.2634416 -46.33266,92.905811 -14.9898,29.563229 -16.32683,80.782367 -60.2004,79.438877 -54.46264,-1.63186 -109.69729,5.0433 -163.4469,-5.691382 -30.01076,-9.352285 -73.57111,0.01539 -90.34068,-32.144288 -13.52408,-47.456244 -24.64228,-99.913543 -62.60521,-134.589179 -15.6152,-20.967657 -25.47108,-11.710692 -21.002,12.34469 -6.88681,45.785933 -11.76836,91.819992 -18.75752,137.63527 -9.45989,38.332669 0.7915,78.592949 -12.50501,116.312629 -13.24456,38.48447 -18.6506,79.79368 -10.34068,120 8.42078,36.88542 12.05129,74.48704 10.66132,112.30461 1.92744,35.12876 -1.72938,69.69836 -5.93186,104.28857 -6.19828,38.88117 -5.35828,78.10709 -3.20641,117.27455 2.96565,11.13213 -2.13812,26.16443 -3.28658,37.03407 l 597.996,0 c 0.32964,-28.17752 -0.70937,-56.42504 0.96192,-84.56914 3.26367,-62.67721 3.86737,-125.46801 6.41282,-188.13627 2.9853,-60.20705 -13.4934,-118.61701 -19.87975,-177.95591 0.005,-76.36334 -57.77836,-137.930956 -60.76153,-213.707417 -2.0285,-39.508983 -0.0546,-82.39891 -22.36473,-116.953908 z"
       id="path5012" />
    <path
       inkscape:connector-curvature="0"
       style="fill:#d12728;fill-opacity:1;fill-rule:nonzero;stroke:none"
       d="m 300.93167,-88.694308 c 0.27537,0.296914 0.40122,0.316101 -0.08,0.961924 -0.028,0.03745 -0.0531,0.04438 -0.08,0.08003 0.0652,-0.349396 0.0777,-0.696689 0.16032,-1.042084 z"
       id="path5010" />
    <path
       style="fill:#000000;fill-opacity:1;fill-rule:nonzero;stroke:none"
       d="m 258.36549,314.08824 c -38.21418,-6.92898 -77.59524,-7.42105 -115.92044,-9.90391 16.87892,-15.34323 60.34092,-1.44825 86.86714,-1.66937 6.14966,1.47067 45.97929,1.07208 29.0533,11.57328 z"
       id="path4880"
       inkscape:connector-curvature="0" />
    <path
       style="fill:#000000;fill-opacity:1;fill-rule:nonzero;stroke:none"
       d="m 263.08692,336.51479 c -27.79175,-0.94715 -55.75236,1.86008 -83.14051,3.85619 8.68786,-16.58095 47.52727,-8.73281 68.14597,-11.55158 5.21252,0.005 28.16189,-1.98828 14.99454,7.69539 z"
       id="path4882"
       inkscape:connector-curvature="0" />
    <path
       style="fill:#000000;fill-opacity:1;fill-rule:nonzero;stroke:none"
       d="m 276.67501,354.77826 c -38.77787,4.14233 -76.96989,14.58005 -113.84125,26.59927 6.09352,-20.55798 52.77973,-19.11606 74.62964,-28.18288 6.4225,-0.0772 53.19221,-14.73162 39.21161,1.58361 z"
       id="path4884"
       inkscape:connector-curvature="0" />
    <path
       style="fill:#000000;fill-opacity:1;fill-rule:nonzero;stroke:none"
       d="m 827.56136,300.08127 c 42.88287,-5.77729 86.5263,-15.09112 129.65774,-11.52705 -16.3346,15.18316 -59.16961,3.52939 -85.15043,12.80087 -8.60216,-1.94093 -55.02684,15.37344 -44.50731,-1.27382 z"
       id="path4886"
       inkscape:connector-curvature="0" />
    <path
       style="fill:#000000;fill-opacity:1;fill-rule:nonzero;stroke:none"
       d="m 835.93451,324.93264 c 37.4106,1.06738 76.58881,-8.87551 112.4855,3.86765 -14.22804,11.39877 -50.30072,-5.1967 -73.15054,2.33612 -7.4093,-1.53629 -53.3592,8.53993 -39.33496,-6.20377 z"
       id="path4888"
       inkscape:connector-curvature="0" />
    <path
       style="fill:#000000;fill-opacity:1;fill-rule:nonzero;stroke:none"
       d="m 847.74975,353.43552 c 32.05608,0.36458 67.3752,4.57045 96.69559,10.92348 -28.2152,11.067 -67.50992,-7.03428 -99.7564,-4.43075 -2.33004,-2.28976 -0.40778,-6.93334 3.06081,-6.49273 z"
       id="path4890"
       inkscape:connector-curvature="0" />
    <path
       style="fill:#c4c4c4;fill-opacity:1;fill-rule:nonzero;stroke:none"
       d="m 381.97376,190.13763 c -18.61469,2.6957 -37.24077,7.32648 -54.46746,15.01682 -13.07627,7.84398 -14.45546,29.00151 -6.85826,41.19719 6.87991,12.38638 14.32202,26.89078 27.63481,33.15187 15.53245,5.41343 29.28532,17.85221 46.8372,15.56398 18.21279,-0.54162 37.10176,4.32381 54.89433,-0.84403 22.97297,-7.12711 37.00041,-32.2916 34.72478,-55.66912 1.19017,-15.53487 -2.8673,-34.32398 -18.1161,-41.76353 -10.44634,5.77875 -25.2542,-4.34874 -38.98662,-2.82164 -15.31876,-0.83562 -30.25243,-4.63057 -45.66268,-3.83154 z"
       id="path4933"
       inkscape:connector-curvature="0" />
    <path
       style="fill:#c4c4c4;fill-opacity:1;fill-rule:nonzero;stroke:none"
       d="m 695.80141,199.24156 c -16.84013,2.23087 -33.72148,3.73252 -50.307,6.46518 -13.84734,3.20624 -29.94792,4.97107 -40.43448,15.49875 -8.90408,24.65516 7.07514,52.81303 29.65932,63.88778 15.02628,8.00143 32.52393,9.62108 49.21844,11.22244 20.67546,0.31823 40.1005,-9.48175 57.24796,-20.1678 16.06136,-15.69705 28.37301,-38.36634 25.51035,-61.42707 -2.90378,-17.27851 -23.67569,-14.40913 -36.58435,-15.43616 -11.43635,-0.0893 -22.87383,-0.0205 -34.31024,-0.0431 z"
       id="path4976"
       inkscape:connector-curvature="0" />
    <path
       style="fill:#000000;fill-opacity:1;fill-rule:nonzero;stroke:none"
       d="m 332.6541,-50.416331 c 14.56586,25.128708 27.61607,54.4401954 31.56734,83.404595 3.68317,17.683084 -10.8228,59.660979 -28.89473,51.151006 22.39982,-18.070137 28.01238,-52.467098 14.49204,-77.5287539 -4.11588,-19.0930341 -22.8261,-42.6512671 -20.2858,-58.0626211 l 3.12115,1.035774 0,0 z"
       id="path4896"
       inkscape:connector-curvature="0" />
    <path
       style="fill:#000000;fill-opacity:1;fill-rule:nonzero;stroke:none"
       d="m 756.58079,-56.882973 c -2.95626,40.460312 -31.2299,76.112186 -27.77467,117.27914 5.36918,10.836188 39.67764,32.381153 7.77786,20.316525 -30.19915,-17.495753 -10.83821,-56.838772 -3.34818,-82.150426 10.4666,-9.723075 10.3506,-68.606615 23.34499,-55.445239 z"
       id="path4900"
       inkscape:connector-curvature="0" />
    <path
       style="fill:#000000;fill-opacity:1;fill-rule:nonzero;stroke:none"
       d="m 346.06193,207.05146 c -14.50781,7.20676 1.24235,25.75927 7.161,35.18982 13.67071,18.52183 35.94014,32.27844 59.37207,31.74392 25.15359,-2.14714 41.97497,-23.87069 54.62309,-43.50669 8.96906,-19.55932 -17.2769,-20.89973 -29.99648,-19.58166 -19.32205,-0.26667 -38.30417,-5.10392 -57.70712,-3.84552 -11.1508,8e-5 -22.30196,-1.8e-4 -33.45256,1.3e-4 z"
       id="path4941"
       inkscape:connector-curvature="0" />
    <path
       style="fill:#ffffff;fill-opacity:1;fill-rule:nonzero;stroke:none"
       d="m 347.10402,214.74685 c 25.34713,0.36392 50.84016,-1.49796 75.89643,3.14167 10.91201,3.98026 36.47115,-6.03519 37.69074,8.48132 -12.10921,18.66025 -28.17621,40.21927 -52.7527,40.12559 -28.5522,-3.11804 -51.81139,-25.15736 -60.83447,-51.74858 z"
       id="path4902"
       inkscape:connector-curvature="0" />
    <path
       inkscape:connector-curvature="0"
       style="fill:#000000;fill-opacity:1;fill-rule:nonzero;stroke:none"
       d="m 402.73528,220.88485 c -3.07536,0.56087 -4.44711,4.99259 -1.36272,7.05411 -0.82439,2.07275 -1.28855,4.25729 -0.32065,6.33266 0.33291,0.71385 0.96885,1.21464 1.44289,1.84369 0.75941,0.35348 1.42252,0.88074 2.24449,1.04209 3.30284,0.64841 5.76762,-1.72287 7.29459,-4.2485 1.39394,-3.63164 0.36109,-6.17568 -2.16433,-8.73748 -0.0487,-0.0893 -0.10466,-0.1557 -0.16032,-0.24035 -0.0295,-0.029 -0.0503,-0.0513 -0.08,-0.08 -0.62825,-0.89551 -1.5636,-1.53351 -2.64529,-1.68337 -0.53891,-0.30404 -1.11691,-0.61512 -1.68337,-0.88176 -0.93027,-0.41902 -1.80316,-0.53976 -2.56513,-0.4008 z m 5.53106,10.66132 c 0.0557,0.20496 0.018,0.40222 -0.08,0.72145 -0.0231,0.07 -0.0906,-0.0877 -0.08,-0.16032 0.0259,-0.18803 0.10876,-0.37785 0.16032,-0.56113 z"
       id="path4904" />
    <path
       style="fill:#000000;fill-opacity:1;fill-rule:nonzero;stroke:none"
       d="m 733.79741,214.15138 c -16.92761,2.92305 -34.32958,2.91758 -51.24892,6.58272 -18.18244,3.73378 -37.02558,0.31982 -55.19688,2.59578 -3.82551,14.72821 12.9153,28.60403 21.68927,40.1614 11.45418,8.29814 24.57549,19.08375 39.70643,15.34948 17.03731,-2.71106 27.77905,-17.66887 37.43984,-30.43216 3.14872,-8.85548 23.39012,-28.99957 7.61026,-34.25722 z"
       id="path4983"
       inkscape:connector-curvature="0" />
    <path
       inkscape:connector-curvature="0"
       style="fill:#d12728;fill-opacity:1;fill-rule:nonzero;stroke:none"
       d="m 734.27837,221.76661 c -0.18572,0.14032 -0.439,0.14904 -0.64128,0.08 0.21111,-0.018 0.42614,-0.0857 0.64128,-0.08 z"
       id="path4981" />
    <path
       style="fill:#ffffff;fill-opacity:1;fill-rule:nonzero;stroke:none"
       d="m 731.7934,222.24758 c -8.24225,17.35459 -18.7658,34.772 -34.87987,45.73683 -15.54236,9.7436 -31.99926,-1.27761 -43.91773,-11.34806 -4.26142,-6.57663 -22.3813,-23.70621 -15.45278,-26.37274 21.20368,0.45228 42.39776,-0.2608 63.24898,-4.54711 10.21661,-2.38228 20.94178,-0.69497 31.0014,-3.46892 z"
       id="path4906"
       inkscape:connector-curvature="0" />
    <path
       style="fill:#000000;fill-opacity:1;fill-rule:nonzero;stroke:none"
       d="m 679.20823,226.09527 c -12.10342,3.85485 -6.64566,26.0351 3.33687,18.098 11.59026,1.53323 5.688,-19.1408 -3.33687,-18.098 z"
       id="path4908"
       inkscape:connector-curvature="0" />
    <path
       style="fill:#c6c6c6;fill-opacity:1;fill-rule:nonzero;stroke:none"
       d="m 553.51684,275.63435 c 21.11303,-0.56125 41.27408,6.82271 59.48058,16.94866 15.06262,7.21115 28.7961,16.87871 42.89937,25.72143 17.60961,15.72636 33.81739,33.50561 46.07697,53.76278 2.9196,13.68797 2.83524,28.6426 -0.39162,42.33398 -6.21377,25.32905 -27.5811,43.19962 -48.40511,56.95885 -14.07703,8.53565 -30.18917,13.7088 -46.3035,16.70366 -39.50349,-0.16801 -79.04516,0.69987 -118.53623,-0.30571 -13.30549,-1.03549 -25.21939,-7.99325 -37.02486,-13.64695 -9.91231,-6.15285 -15.27518,-16.97519 -22.76554,-25.57115 -5.7534,-11.93573 -11.01218,-24.53005 -9.93987,-38.07615 -0.52162,-13.38613 -0.44087,-27.71254 7.77421,-39.04731 7.25078,-14.54331 14.71831,-29.4353 27.10091,-40.41327 9.7456,-10.17797 18.60625,-21.36946 29.49348,-30.35906 11.66052,-2.84055 21.84291,-11.79426 33.41739,-15.94336 11.78311,-4.76014 24.56602,-7.46512 37.12382,-9.0664 z"
       id="path4912"
       inkscape:connector-curvature="0" />
    <path
       style="fill:#bebebe;fill-opacity:1;fill-rule:nonzero;stroke:none"
       d="m 541.4928,297.67844 c 16.60314,-0.64585 33.05783,1.86546 49.50837,3.60765 15.46938,4.54846 31.96909,8.9177 44.30534,19.86552 9.51492,14.26297 13.86137,31.741 12.72764,48.80871 0.41075,13.93825 -0.79668,28.64035 -8.96977,40.45087 -4.00169,9.29049 -10.50998,17.52074 -19.63179,22.19646 -10.61495,8.28047 -21.40191,17.15005 -34.66076,20.71073 -11.40837,1.25833 -22.56148,4.86113 -34.16977,3.79819 -14.45187,-0.40062 -29.50931,1.6648 -43.24135,-4.0063 -11.64212,-3.46487 -22.98013,-8.22637 -33.28564,-14.65122 -8.67232,-7.57058 -15.51278,-17.4077 -20.18729,-27.90672 -6.59808,-16.27568 -0.13724,-34.07566 6.18604,-49.34903 6.10791,-14.28549 15.36964,-26.77665 24.26467,-39.39661 1.12573,-10.30082 13.89133,-12.77817 21.50972,-17.15849 11.38738,-4.03713 23.64026,-5.94433 35.64459,-6.96976 z"
       id="path4922"
       inkscape:connector-curvature="0" />
    <path
       style="fill:#aeaeae;fill-opacity:1;fill-rule:nonzero;stroke:none"
       d="m 542.2944,318.43996 c 9.35724,0.3219 18.69721,1.20577 27.99037,2.31542 4.31583,0.5271 8.89369,2.12533 11.16575,6.12542 3.25538,4.52938 5.87974,9.70825 6.90785,15.21646 -0.10748,12.54977 0.39277,25.11988 -0.13211,37.66535 -0.32012,7.28376 -2.82302,14.51094 -7.29459,20.28056 -4.62557,5.32716 -10.94459,9.71974 -18.18228,10.20468 -6.34677,0.55214 -12.7312,-0.3985 -18.87638,-1.89846 -5.77878,-2.7787 -11.29065,-6.20984 -16.23648,-10.29576 -4.14571,-4.09375 -9.22726,-7.60638 -11.4312,-13.26147 -2.86838,-5.5336 -1.38037,-11.92555 -1.57158,-17.87683 0.21111,-7.7274 2.59733,-15.1768 4.6009,-22.57915 1.4564,-4.96724 2.66273,-10.11574 5.83944,-14.33669 2.32262,-2.65173 4.60592,-6.30966 4.78456,-8.99412 3.95571,-1.56103 8.17609,-2.50049 12.43575,-2.56541 z"
       id="path4926"
       inkscape:connector-curvature="0" />
    <path
       style="fill:#555555;fill-opacity:1;fill-rule:nonzero;stroke:none"
       d="m 570.34023,293.68604 c 3.1412,0.48238 9.8069,-0.68655 10.5976,1.38451 -3.63133,7.16977 -8.52506,13.69512 -11.0414,21.41455 -2.18038,5.89067 -4.15779,11.92457 -7.95762,17.00979 -1.05532,2.75426 -0.0834,2.21809 -2.91738,0.70326 -7.08078,-4.94742 -13.70261,-10.87136 -18.60263,-18.02299 -3.75199,-6.45587 -7.30959,-13.02209 -11.09206,-19.46226 9.84887,-1.39638 19.67642,-3.44023 29.68854,-2.96198 3.77487,-0.0357 7.5499,-0.0765 11.32495,-0.0649 z"
       id="path4924"
       inkscape:connector-curvature="0" />
    <path
       style="fill:#000000;fill-opacity:1;fill-rule:nonzero;stroke:none"
       d="m 534.07844,299.84656 c 8.06762,14.10773 19.1803,26.30908 31.22007,37.14055 -9.56637,2.43657 1.08954,-12.36803 1.08398,-17.77443 3.99298,-8.03961 5.9028,-20.57086 14.73708,-23.93474 8.05043,6.50181 -6.97382,16.59526 -7.0015,25.17449 -4.85805,6.90423 -2.01293,26.78394 -14.09385,22.21711 -12.71358,-11.66303 -24.6537,-24.6035 -33.01889,-39.79161 -2.45814,-4.75375 5.32633,-8.08968 7.07311,-3.03137 z"
       id="path4914"
       inkscape:connector-curvature="0" />
    <path
       style="fill:#000000;fill-opacity:1;fill-rule:nonzero;stroke:none"
       d="m 567.42516,340.86205 c -1.42108,10.31344 -1.60569,20.84558 -3.90918,31.00288 -11.82866,6.12012 -4.60264,-14.12369 -4.99205,-20.27289 -0.0303,-5.48838 1.32917,-21.10269 8.7946,-12.54269 l 0.10671,1.8127 0,0 z"
       id="path4916"
       inkscape:connector-curvature="0" />
    <path
       style="fill:#000000;fill-opacity:1;fill-rule:nonzero;stroke:none"
       d="m 429.83627,401.32383 c 1.16205,-10.45875 9.37965,-17.38509 20.03295,-14.38509 13.20772,1.14646 25.38406,-5.28212 37.98044,-8.05864 13.14886,-3.39603 26.46961,-6.50368 40.177,-6.02031 16.05664,-1.05778 32.1625,-1.5076 48.27026,-1.28652 15.76478,-0.68319 31.28679,2.67628 47.00835,3.21883 16.60273,0.94112 33.42405,1.8846 49.2465,7.39312 10.68743,3.30081 22.4819,7.37834 29.16786,16.89902 -2.29469,12.28836 -12.65571,-4.4951 -19.29121,-5.17999 -11.14901,-4.5627 -22.96674,-8.07093 -34.9655,-9.47347 -19.82592,-2.10292 -39.79759,-2.56415 -59.58562,-5.16789 -19.4896,0.0231 -39.01288,-0.38043 -58.44467,1.32879 -12.76393,-0.53632 -25.33338,1.87714 -37.54278,5.297 -14.47275,3.21172 -28.48583,10.30738 -43.67478,8.7042 -11.60286,-5.44818 -7.10208,9.75388 -15.05078,12.31858 -2.75661,-0.0421 -4.62706,-3.12079 -3.32802,-5.58763 z"
       id="path4918"
       inkscape:connector-curvature="0" />
    <path
       style="fill:#000000;fill-opacity:1;fill-rule:nonzero;stroke:none"
       d="m 542.92155,419.29049 c 7.02948,-2.7019 13.34604,-7.37082 20.86059,-8.64213 6.02967,-0.53698 11.3578,2.72751 16.34193,5.63054 3.66634,1.7054 10.954,6.63171 5.3533,10.52558 -5.23153,1.00743 -8.90634,-4.95181 -13.77229,-6.43789 -4.47038,-3.29655 -10.27709,-2.01388 -14.61732,0.821 -4.90476,1.56316 -9.45476,6.14749 -14.75229,5.25721 -3.05582,-1.42437 -2.73097,-6.25207 0.58608,-7.15431 z"
       id="path4920"
       inkscape:connector-curvature="0" />
    <path
       style="fill:#000000;fill-opacity:1;fill-rule:nonzero;stroke:none"
       d="m 1110.3104,-96.63018 c -33.5871,2.115643 -66.7224,9.690267 -99.1382,18.416558 -29.575,11.003639 -61.436,21.802068 -84.01499,44.843582 -20.14974,18.314055 -21.8791,47.415509 -19.17143,72.691764 5.84709,34.876563 31.17257,63.656916 62.20441,79.198396 13.66517,7.64858 -13.6182,19.75207 -16.2029,31.13014 -16.81353,18.22112 -28.75426,41.84987 -51.53257,53.59932 -7.25845,5.52855 -40.98268,17.38022 -20.94855,22.50148 31.66746,-8.25395 63.23206,-17.64312 93.99751,-28.91231 21.60668,-9.01707 43.23792,-21.41234 57.77272,-40.08216 15.6377,8.3108 34.3778,7.77119 51.6232,10.58117 39.7733,2.07683 80.1356,6.88062 119.5597,-1.19913 29.3543,-4.05221 58.406,-12.36282 84.8491,-25.8149 22.8705,-13.80571 37.1924,-38.11943 42.0524,-63.99836 5.2132,-20.782942 5.214,-43.0779 1.6867,-64.168401 -7.0529,-27.409956 -23.2133,-52.330786 -42.8676,-72.427556 -22.1327,-17.677852 -51.4459,-22.198868 -78.2014,-28.992282 -33.7271,-4.946597 -67.5261,-8.682017 -101.6681,-7.367311 z"
       id="path5039"
       inkscape:connector-curvature="0" />
    <path
       style="fill:#ffffff;fill-opacity:1;fill-rule:nonzero;stroke:none"
       d="m 1110.4708,-88.934789 c 36.2907,-1.255144 72.5356,2.591423 108.2164,8.897796 27.883,7.728711 61.0849,12.676078 78.3367,38.819758 17.771,23.673048 33.4573,51.77287 30.5019,82.445159 0.3668,25.21759 -5.5089,51.879862 -20.4676,72.503326 -17.6726,25.21924 -49.4412,31.43075 -76.9267,40.15276 -31.0954,5.9776 -62.6345,11.40408 -94.4101,8.48381 -32.0482,-1.37943 -64.7314,-2.01481 -95.7916,-10.42085 -15.9741,-9.93816 -24.1285,21.02155 -40.70831,24.05587 -29.07996,18.86366 -63.795,25.35283 -96.28568,36.06438 17.85185,-9.57207 31.66746,-24.27817 43.17414,-40.76067 12.71931,-15.5578 24.88328,-31.62385 38.91003,-45.9728 -3.57674,-16.79486 -30.8903,-20.31907 -41.58951,-35.24248 C 920.42082,68.33227 910.02904,35.054245 916.18425,3.9979822 920.17944,-26.263783 949.413,-43.999453 974.9139,-55.5351 c 39.1437,-19.145081 82.4871,-26.938844 125.2966,-32.810992 3.4106,-0.328259 6.8338,-0.547911 10.2603,-0.588697 z"
       id="path5022"
       inkscape:connector-curvature="0" />
    <path
       style="fill:#000000;fill-opacity:1;fill-rule:nonzero;stroke:none"
       d="m 1027.0124,74.590726 c -1.7035,-41.323889 -0.5907,-82.9963542 5.6502,-123.818607 17.3401,8.544885 13.9816,40.1321301 25.604,57.2487057 8.6985,20.0777623 16.0914,41.3741663 29.6031,58.7703403 -11.4626,-2.724809 0.2201,-28.19468 -1.3991,-40.471291 2.0735,-18.0316345 3.0623,-36.2119182 4.1216,-54.282927 14.7457,-4.043595 3.6212,25.512349 5.4143,35.3913069 -2.3266,21.1661471 -3.5553,42.6554231 -6.7384,63.5998911 -17.1368,3.185763 -22.7035,-30.68514 -31.2498,-43.72144 -10.3598,-23.721914 -19.5048,-48.073491 -25.3498,-73.33279 15.67,-2.016654 0.3183,26.804149 3.0295,38.3750668 -2.668,27.9250342 -1.2306,56.0923702 -1.3213,84.0273312 -1.5984,3.985418 -7.7377,2.316005 -7.3643,-1.785587 z"
       id="path5033"
       inkscape:connector-curvature="0" />
    <path
       style="fill:#000000;fill-opacity:1;fill-rule:nonzero;stroke:none"
       d="m 1135.1323,-21.97332 c -14.1548,17.6418369 -23.7073,42.090324 -18.2524,64.722315 5.8458,16.055022 31.5179,28.103849 44.7665,13.710339 16.604,-13.730912 28.6362,-38.240116 16.5379,-58.695157 -5.5873,-18.979732 -36.1213,-33.618469 -48.8002,-13.794039 -0.9848,12.9153023 -18.0243,11.1071677 -8.4324,-0.943866 10.4189,-24.595033 45.8951,-18.413325 58.1376,0.994168 13.9152,17.8584881 15.9409,44.115957 1.6766,62.426857 -9.5105,12.413537 -22.9125,29.33465 -40.7693,23.20327 -19.6576,-3.004742 -35.2251,-21.450132 -32.5342,-41.60041 1.8988,-20.3494349 8.7161,-42.485021 24.1654,-56.288244 3.3922,-0.568073 5.7078,3.800908 3.5045,6.264767 z"
       id="path5035"
       inkscape:connector-curvature="0" />
  </g>
</svg>
